<?xml version="1.0" standalone="no"?>
<!DOCTYPE svg PUBLIC "-//W3C//DTD SVG 1.1//EN" "http://www.w3.org/Graphics/SVG/1.1/DTD/svg11.dtd" >
<svg>
<metadata>
Created by FontForge 20110222 at Fri Aug 16 02:38:59 2013
 By Orthosie Webhosting
Copyright \251 DoubleAlex Team.      All rights reserved.
</metadata>
<defs>
<font id="BastionKontrastAltCRegular" horiz-adv-x="450" >
  <font-face 
    font-family="BastionKontrastAltCRegular"
    font-weight="400"
    font-stretch="normal"
    units-per-em="1000"
    panose-1="0 0 5 0 0 0 0 0 0 0"
    ascent="836"
    descent="-164"
    x-height="575"
    cap-height="719"
    bbox="-37 -164 900 860"
    underline-thickness="50"
    underline-position="-50"
    unicode-range="U+0020-2265"
  />
<missing-glyph horiz-adv-x="1000" 
 />
    <glyph glyph-name=".notdef" horiz-adv-x="1000" 
 />
    <glyph glyph-name=".null" horiz-adv-x="0" 
 />
    <glyph glyph-name="nonmarkingreturn" horiz-adv-x="333" 
 />
    <glyph glyph-name="space" unicode=" " horiz-adv-x="225" 
 />
    <glyph glyph-name="space" unicode="&#xa0;" horiz-adv-x="225" 
 />
    <glyph glyph-name="exclam" unicode="!" horiz-adv-x="301" 
d="M225 719v-281l-34 -230h-81l-34 230v281h149zM76 0v166h149v-166h-149z" />
    <glyph glyph-name="quotedbl" unicode="&#x22;" 
d="M254 719h128v-254h-128v254zM68 719h128v-254h-128v254z" />
    <glyph glyph-name="numbersign" unicode="#" 
d="M26 526h80l22 181h103l-21 -181h73l21 181h103l-23 -181h67v-106h-80l-14 -118h67v-106h-80l-23 -196h-101l23 196h-74l-23 -196h-104l24 196h-67v106h80l14 118h-67v106zM197 420l-15 -118h74l14 118h-73z" />
    <glyph glyph-name="dollar" unicode="$" 
d="M26 238h149v-56q0 -25 1.5 -37t12.5 -23t33 -11q43 0 43 67q0 32 -24.5 63t-60 59t-71 59t-60 77t-24.5 100q0 80 44.5 128.5t117.5 54.5v65h74v-65q83 -7 119 -53t36 -131v-46h-150v47q0 61 -46 61q-17 0 -28.5 -15.5t-11.5 -37.5q0 -23 18 -47t45.5 -45t59 -49.5
t59 -58t45.5 -73t18 -92.5q0 -164 -164 -191v-64h-74v64q-69 0 -115 43t-46 126v81z" />
    <glyph glyph-name="percent" unicode="%" horiz-adv-x="800" 
d="M565 98q0 -31 26 -31q25 0 25 31v159q0 31 -25 31q-26 0 -26 -31v-159zM84 609q0 110 127 110q125 0 125 -110v-159q0 -110 -125 -110q-127 0 -127 110v159zM184 450q0 -31 27 -31q24 0 24 31v159q0 31 -24 31q-27 0 -27 -31v-159zM454 731h83l-188 -754h-86zM464 257
q0 110 127 110q125 0 125 -110v-159q0 -110 -125 -110q-127 0 -127 110v159z" />
    <glyph glyph-name="ampersand" unicode="&#x26;" horiz-adv-x="600" 
d="M559 400q-14 -160 -87 -247l84 -153h-159l-23 44q-58 -56 -147 -56q-50 0 -87 18t-55.5 41.5t-29 57t-12.5 54.5t-2 44q0 53 36 115.5t97 93.5q-20 33 -29.5 50t-20.5 49t-11 58q0 71 46.5 110.5t118.5 39.5q73 0 119 -34.5t46 -104.5q0 -52 -29.5 -101t-75.5 -83
l63 -113q2 -2 9.5 19.5t14.5 51.5t7 46h127zM234 302q-27 -30 -38 -52t-11 -55q0 -30 19 -54.5t49 -24.5q32 0 66 28zM247 576q0 -8 4 -20t8.5 -20t11.5 -20.5t8 -14.5q41 39 41 71q0 41 -36 41q-37 0 -37 -37z" />
    <glyph glyph-name="quotesingle" unicode="'" horiz-adv-x="250" 
d="M61 719h128v-254h-128v254z" />
    <glyph glyph-name="parenleft" unicode="(" horiz-adv-x="300" 
d="M265 640q-18 0 -30.5 -6.5t-19 -14.5t-9.5 -25t-3.5 -28t-0.5 -33v-457q0 -22 1 -34t6.5 -29t19.5 -25t36 -8v-79q-91 15 -146 67.5t-55 140.5v391q0 94 53.5 153.5t147.5 65.5v-79z" />
    <glyph glyph-name="parenright" unicode=")" horiz-adv-x="300" 
d="M35 -20q22 0 35.5 8t19 25t6.5 29t1 34v457q0 27 -1 41t-6.5 32t-19 26t-35.5 8v79q93 -6 147 -65.5t54 -153.5v-391q0 -88 -55 -140.5t-146 -67.5v79z" />
    <glyph glyph-name="asterisk" unicode="*" horiz-adv-x="350" 
d="M208 516l7 -94h-74l3 94l-71 -53l-38 58l82 50l-80 50l33 61l74 -54l-5 91h75l-6 -90l75 52l32 -60l-84 -50l84 -49l-36 -57z" />
    <glyph glyph-name="plus" unicode="+" horiz-adv-x="540" 
d="M206 520h128v-164h164v-127h-164v-164h-128v164h-164v127h164v164z" />
    <glyph glyph-name="comma" unicode="," horiz-adv-x="225" 
d="M38 166h149v-155q0 -31 -24 -70.5t-42 -43.5h-83q57 50 74 103h-74v166z" />
    <glyph glyph-name="hyphen" unicode="-" horiz-adv-x="300" 
d="M31 371h237v-133h-237v133z" />
    <glyph glyph-name="hyphen" unicode="&#xad;" horiz-adv-x="300" 
d="M31 371h237v-133h-237v133z" />
    <glyph glyph-name="period" unicode="." horiz-adv-x="225" 
d="M38 0v166h149v-166h-149z" />
    <glyph glyph-name="slash" unicode="/" horiz-adv-x="250" 
d="M159 731h128l-196 -743h-128z" />
    <glyph glyph-name="zero" unicode="0" 
d="M27 539q0 84 51.5 132t146.5 48t146.5 -48t51.5 -132v-371q0 -84 -51.5 -132t-146.5 -48t-146.5 48t-51.5 132v371zM187 157q0 -46 38 -46t38 46v394q0 46 -38 46t-38 -46v-394z" />
    <glyph glyph-name="one" unicode="1" 
d="M46 632q44 2 82.5 20.5t50.5 54.5h135v-707h-155v531h-113v101z" />
    <glyph glyph-name="two" unicode="2" 
d="M33 515q0 104 49 154t155 50q93 0 143.5 -47.5t50.5 -140.5q0 -53 -16 -95t-43 -73t-56 -57.5t-62 -61.5t-54 -71q-7 -11 -9 -20q-6 -12 -7 -20h242v-133h-407v44q0 85 26 149.5t63 103t74 71.5t63 73t26 89q0 67 -44 67q-27 0 -35.5 -18t-8.5 -49v-71h-150v56z" />
    <glyph glyph-name="three" unicode="3" 
d="M22 238h154v-73q0 -54 44 -54q43 0 43 54v50q0 62 -19.5 82t-82.5 21v117h28q27 0 47.5 14.5t20.5 40.5v58q0 49 -37 49q-41 0 -41 -53v-45h-154q-6 108 39 164t158 56q94 0 145 -41.5t51 -137.5q0 -59 -16 -96.5t-64 -60.5q35 -11 54.5 -38t25 -56t5.5 -71
q0 -118 -43.5 -174t-157.5 -56q-95 0 -147.5 45.5t-52.5 137.5v67z" />
    <glyph glyph-name="four" unicode="4" 
d="M17 283q41 87 69.5 205t34.5 219h166q-10 -109 -59 -225.5t-120 -219.5h116v97q68 94 95 206h60v-303h54v-128h-54v-134h-155v134h-207v149z" />
    <glyph glyph-name="five" unicode="5" 
d="M38 707h362v-133h-229v-106h2q37 28 84 28q166 0 166 -173v-100q0 -117 -45.5 -176t-155.5 -59q-95 0 -147.5 45.5t-52.5 137.5v62h154v-68q0 -54 44 -54q43 0 43 54v154q0 54 -43 54q-44 0 -44 -54h-138v388z" />
    <glyph glyph-name="six" unicode="6" 
d="M27 539q0 84 51 132t147 48q187 0 187 -182h-144q0 60 -43 60q-24 0 -33.5 -13.5t-9.5 -46.5v-80l2 -2q19 25 37.5 33t52.5 8q83 0 116 -49.5t33 -138.5v-140q0 -84 -51.5 -132t-146.5 -48t-146.5 47.5t-51.5 132.5v371zM187 157q0 -27 10 -36.5t28 -9.5q38 0 38 46v171
q0 45 -38 45t-38 -45v-171z" />
    <glyph glyph-name="seven" unicode="7" 
d="M11 707h412v-119q-22 -37 -39 -70q-47 -91 -78 -210t-39 -229q-1 -13 -2.5 -39.5t-2.5 -39.5h-171q1 38 6 76q21 191 138 432q4 7 10.5 21t12 25t10.5 20h-257v133z" />
    <glyph glyph-name="eight" unicode="8" 
d="M27 228q0 27 1.5 42.5t8.5 39.5t24.5 41.5t46.5 28.5q-40 16 -58 47.5t-18 62.5v49q0 23 1 38.5t11.5 45.5t29 48t57.5 33t94 15t94 -15t57.5 -33t29 -48t11.5 -45.5t1 -38.5v-49q0 -31 -19 -62t-60 -48q54 -19 69 -53.5t15 -98.5v-60q0 -84 -51.5 -132t-146.5 -48
t-146.5 48t-51.5 132v60zM187 157q0 -46 38 -46t38 46v114q0 46 -38 46t-38 -46v-114zM187 485q0 -46 38 -46t38 46v66q0 46 -38 46t-38 -46v-66z" />
    <glyph glyph-name="nine" unicode="9" 
d="M423 168q0 -84 -51.5 -132t-146.5 -48q-187 0 -187 182h144q0 -59 43 -59t43 59v80l-2 2q-19 -25 -38 -33t-52 -8q-83 0 -116 49.5t-33 139.5v139q0 84 51.5 132t146.5 48t146.5 -48t51.5 -132v-371zM263 551q0 46 -38 46t-38 -46v-171q0 -46 38 -46t38 46v171z" />
    <glyph glyph-name="colon" unicode=":" horiz-adv-x="225" 
d="M38 523h149v-166h-149v166zM38 166h149v-166h-149v166z" />
    <glyph glyph-name="semicolon" unicode=";" horiz-adv-x="225" 
d="M38 166h149v-155q0 -31 -24 -70.5t-42 -43.5h-83q57 50 74 103h-74v166zM38 523h149v-166h-149v166z" />
    <glyph glyph-name="less" unicode="&#x3c;" horiz-adv-x="540" 
d="M42 229v127l456 171v-138l-276 -96v-1l276 -96v-138z" />
    <glyph glyph-name="equal" unicode="=" horiz-adv-x="540" 
d="M498 340h-456v128h456v-128zM498 117h-456v128h456v-128z" />
    <glyph glyph-name="greater" unicode="&#x3e;" horiz-adv-x="540" 
d="M42 196l276 96v1l-276 96v138l456 -171v-127l-456 -171v138z" />
    <glyph glyph-name="question" unicode="?" 
d="M127 208v40q0 42 15 78.5t36.5 63t43.5 50.5t37 52.5t15 58.5q0 74 -51 74q-50 0 -50 -84v-50h-139v61q0 80 52.5 129.5t142.5 49.5q94 0 146.5 -43t52.5 -131q0 -44 -19 -81.5t-46 -65.5t-54 -55.5t-46 -65t-19 -81.5h-117zM110 166h149v-166h-149v166z" />
    <glyph glyph-name="at" unicode="@" horiz-adv-x="792" 
d="M486 359q0 37 -22.5 60.5t-59.5 23.5q-42 0 -70 -32.5t-28 -73.5q0 -36 20.5 -60.5t55.5 -24.5q45 0 74.5 31.5t29.5 75.5zM521 538h94l-44 -237q-6 -27 -6 -34q0 -20 24 -20q31 0 56 34t25 117q0 116 -71.5 179.5t-188.5 63.5q-123 0 -197.5 -79t-74.5 -204
q0 -129 80 -204.5t209 -75.5q107 0 188 61h98q-109 -151 -295 -151q-161 0 -274 105t-113 265q0 159 111.5 266t270.5 107q139 0 243 -84.5t104 -217.5q0 -65 -20 -117.5t-49.5 -83.5t-65 -52t-63.5 -28.5t-48 -7.5q-60 0 -62 50h-3q-37 -50 -95 -50q-65 0 -115 53.5
t-50 126.5q0 92 56.5 160.5t144.5 68.5q79 0 122 -59z" />
    <glyph glyph-name="A" unicode="A" horiz-adv-x="500" 
d="M139 719h220l135 -719h-174l-15 128h-116l-17 -128h-166zM206 256h83l-39 351h-2z" />
    <glyph glyph-name="B" unicode="B" horiz-adv-x="500" 
d="M37 719h229q93 0 136 -39t43 -130q0 -32 -3 -55t-12 -47t-27.5 -40.5t-47.5 -26.5v-2q58 -11 83 -52.5t25 -113.5q0 -213 -191 -213h-235v719zM202 122h35q39 0 50 20.5t11 77.5q0 46 -11.5 72t-46.5 26h-38v-196zM202 435h31q35 0 46.5 21.5t11.5 61.5q0 41 -11.5 60
t-40.5 19h-37v-162z" />
    <glyph glyph-name="C" unicode="C" horiz-adv-x="500" 
d="M37 523q0 102 58.5 155t154.5 53t154.5 -53t58.5 -155v-67h-165v81q0 13 -1 21.5t-5 20.5t-14.5 18t-27.5 6t-27.5 -6t-14.5 -18t-5 -20.5t-1 -21.5v-355q0 -66 48 -66t48 66v105h165v-91q0 -96 -57 -152t-156 -56q-98 0 -155.5 56t-57.5 152v327z" />
    <glyph glyph-name="D" unicode="D" horiz-adv-x="500" 
d="M202 122h27q69 0 69 62v351q0 62 -69 62h-27v-475zM37 719h246q100 0 140 -50.5t40 -142.5v-342q0 -91 -53 -137.5t-127 -46.5h-246v719z" />
    <glyph glyph-name="E" unicode="E" 
d="M37 719h368v-139h-203v-143h178v-138h-178v-160h211v-139h-376v719z" />
    <glyph glyph-name="F" unicode="F" horiz-adv-x="400" 
d="M37 719h345v-139h-180v-143h162v-138h-162v-299h-165v719z" />
    <glyph glyph-name="G" unicode="G" horiz-adv-x="500" 
d="M37 523q0 102 58.5 155t154.5 53q95 0 154 -41.5t59 -135.5v-80h-157v72q0 57 -52 57q-29 0 -40.5 -21t-11.5 -45v-355q0 -66 48 -66q53 0 53 54v93h-58v133h218v-396h-144v58h-2q-44 -70 -128 -70q-152 0 -152 208v327z" />
    <glyph glyph-name="H" unicode="H" horiz-adv-x="500" 
d="M37 719h165v-269h96v269h165v-719h-165v306h-96v-306h-165v719z" />
    <glyph glyph-name="I" unicode="I" horiz-adv-x="250" 
d="M42 719h166v-719h-166v719z" />
    <glyph glyph-name="J" unicode="J" 
d="M413 179q0 -98 -49.5 -144.5t-150.5 -46.5q-191 0 -191 191v105h160v-122q0 -14 1.5 -22.5t8.5 -16t21 -7.5q34 0 34 47v556h166v-540z" />
    <glyph glyph-name="K" unicode="K" horiz-adv-x="500" 
d="M37 719h160v-294h3l110 294h175l-138 -298l139 -421h-176l-74 257l-39 -59v-198h-160v719z" />
    <glyph glyph-name="L" unicode="L" horiz-adv-x="400" 
d="M37 719h165v-580h180v-139h-345v719z" />
    <glyph glyph-name="M" unicode="M" horiz-adv-x="700" 
d="M41 719h261l47 -356h2l47 356h261v-719h-160v559h-2l-93 -559h-108l-93 559h-1v-559h-161v719z" />
    <glyph glyph-name="N" unicode="N" horiz-adv-x="550" 
d="M37 719h181l133 -424h2v424h160v-719h-180l-134 445h-2v-445h-160v719z" />
    <glyph glyph-name="O" unicode="O" horiz-adv-x="500" 
d="M202 182q0 -66 48 -66t48 66v355q0 13 -1 21.5t-5 20.5t-14.5 18t-27.5 6t-27.5 -6t-14.5 -18t-5 -20.5t-1 -21.5v-355zM37 523q0 102 58.5 155t154.5 53t154.5 -53t58.5 -155v-327q0 -96 -57 -152t-156 -56q-98 0 -155.5 56t-57.5 152v327z" />
    <glyph glyph-name="P" unicode="P" horiz-adv-x="500" 
d="M202 413h42q38 0 49.5 19.5t11.5 71.5q0 32 -4.5 50t-17.5 26t-24.5 9.5t-37.5 1.5h-19v-178zM37 719h177q73 0 117.5 -8t78.5 -31t47.5 -66.5t13.5 -113.5q0 -44 -7 -78.5t-24.5 -67.5t-54 -51t-89.5 -18h-94v-285h-165v719z" />
    <glyph glyph-name="Q" unicode="Q" horiz-adv-x="500" 
d="M202 182q0 -66 48 -66t48 66v355q0 13 -1 21.5t-5 20.5t-14.5 18t-27.5 6t-27.5 -6t-14.5 -18t-5 -20.5t-1 -21.5v-355zM37 523q0 102 58.5 155t154.5 53t154.5 -53t58.5 -155v-327q0 -119 -93 -178l64 -103l-134 -14q-4 8 -49 87q-99 0 -156.5 56t-57.5 152v327z" />
    <glyph glyph-name="R" unicode="R" horiz-adv-x="500" 
d="M37 719h219q112 0 160.5 -39t48.5 -135q0 -71 -19 -109t-81 -57v-2q45 -9 71 -39t26 -75v-127v-16v-18v-17t0.5 -18t1.5 -16.5t2 -16t3 -13t4.5 -12.5t5.5 -9h-164q-19 23 -19 136v115q0 31 -14 45t-49 14h-31v-310h-165v719zM202 433h41q20 0 32.5 6t17.5 20t6 24.5
t1 33.5q0 24 -1 35t-7 23.5t-19.5 17t-37.5 4.5h-33v-164z" />
    <glyph glyph-name="S" unicode="S" horiz-adv-x="500" 
d="M191 244v-53q0 -75 56 -75q27 0 42 15.5t15 40.5q0 15 -6 30t-13 26t-23.5 26t-25.5 22.5t-31.5 24.5t-31.5 24q-3 3 -19.5 15.5t-20.5 16t-18 15t-18.5 16.5t-15 17t-14.5 20t-11 21t-9 25l-4.5 27t-2.5 31q0 202 211 202q105 0 156 -47.5t51 -133.5v-65h-155v39
q0 79 -52 79q-26 0 -41.5 -14.5t-15.5 -39.5q0 -12 7 -25.5t23.5 -29t29.5 -26.5t39.5 -31.5t38.5 -30.5q3 -3 30.5 -24t34.5 -28t26.5 -29t26 -40t13.5 -48t7 -65q0 -29 -11.5 -58.5t-35.5 -59t-70.5 -48t-107.5 -18.5q-58 0 -102 17t-67 44.5t-34 57t-11 59.5v78h160z" />
    <glyph glyph-name="T" unicode="T" horiz-adv-x="400" 
d="M10 719h380v-139h-107v-580h-166v580h-107v139z" />
    <glyph glyph-name="U" unicode="U" horiz-adv-x="500" 
d="M37 719h165v-525q0 -19 1 -28.5t5 -21.5t14.5 -17.5t27.5 -5.5t27.5 5.5t14.5 17.5t5 21.5t1 28.5v525h165v-523q0 -96 -57 -152t-156 -56q-98 0 -155.5 56t-57.5 152v523z" />
    <glyph glyph-name="V" unicode="V" 
d="M6 719h169l45 -511h2l55 511h167l-123 -719h-205z" />
    <glyph glyph-name="W" unicode="W" horiz-adv-x="750" 
d="M13 719h171l58 -511h2l53 511h161l50 -511h2l60 511h166l-126 -719h-184l-49 443h-2l-55 -443h-184z" />
    <glyph glyph-name="X" unicode="X" horiz-adv-x="500" 
d="M148 388l-131 331h178l57 -204h2l57 204h172l-132 -337l140 -382h-173l-71 232h-1l-65 -232h-172z" />
    <glyph glyph-name="Y" unicode="Y" 
d="M7 719h171l46 -243h2l48 243h169l-135 -423v-296h-166v284z" />
    <glyph glyph-name="Z" unicode="Z" 
d="M26 719h408v-134l-235 -446h235v-139h-418v134l233 446h-223v139z" />
    <glyph glyph-name="bracketleft" unicode="[" horiz-adv-x="300" 
d="M70 719h202v-90h-63v-638h63v-90h-202v818z" />
    <glyph glyph-name="backslash" unicode="\" horiz-adv-x="250" 
d="M287 -12h-128l-196 743h128z" />
    <glyph glyph-name="bracketright" unicode="]" horiz-adv-x="300" 
d="M28 -99v90h63v638h-63v90h201v-818h-201z" />
    <glyph glyph-name="asciicircum" unicode="^" horiz-adv-x="540" 
d="M42 379l146 328h164l146 -328h-144l-84 214l-85 -214h-143z" />
    <glyph glyph-name="underscore" unicode="_" 
d="M0 -112v45h450v-45h-450z" />
    <glyph glyph-name="grave" unicode="`" horiz-adv-x="250" 
d="M145 749l39 -123h-83l-98 123h142z" />
    <glyph glyph-name="a" unicode="a" 
d="M415 0h-142v44h-2q-18 -26 -47.5 -41t-62.5 -15t-56.5 10t-37 25t-21 39.5t-9.5 47t-2 54.5q0 73 31.5 109.5t85.5 59.5q6 3 27.5 11.5t28.5 12t21.5 12.5t20 16.5t10.5 20t5 27.5q0 24 -7.5 36t-28.5 12q-39 0 -39 -40v-47h-144v52q0 63 50.5 102t131.5 39
q102 0 144.5 -42.5t42.5 -137.5v-407zM265 289l-43 -32q-27 -19 -27 -51v-76q0 -46 34 -46q36 0 36 50v155z" />
    <glyph glyph-name="b" unicode="b" 
d="M35 719h155v-196h2q33 64 110 64q113 0 113 -146v-281q0 -81 -30 -126.5t-85 -45.5q-78 0 -108 70h-2v-58h-155v719zM190 199q0 -21 0.5 -32.5t4 -28.5t12 -25t22.5 -8q31 0 31 38v292q0 16 -9.5 25.5t-21.5 9.5q-39 0 -39 -73v-198z" />
    <glyph glyph-name="c" unicode="c" 
d="M35 423q0 28 8.5 54.5t28 52.5t59 41.5t94.5 15.5t94.5 -15.5t59 -41.5t28 -52.5t8.5 -54.5v-61h-155v72q0 14 -1 22t-9.5 16.5t-24.5 8.5t-24.5 -8.5t-9.5 -16.5t-1 -22v-293q0 -14 1 -22t9.5 -16.5t24.5 -8.5t24.5 8.5t9.5 16.5t1 22v104h155v-93q0 -28 -8.5 -54.5
t-28 -52.5t-59 -41.5t-94.5 -15.5t-94.5 15.5t-59 41.5t-28 52.5t-8.5 54.5v271z" />
    <glyph glyph-name="d" unicode="d" 
d="M415 0h-155v58h-2q-30 -70 -108 -70q-55 0 -85 45.5t-30 126.5v281q0 146 113 146q77 0 110 -64h2v196h155v-719zM260 397q0 73 -40 73q-12 0 -21 -9.5t-9 -25.5v-292q0 -38 30 -38q14 0 23 8t12 25t4 28.5t1 32.5v198z" />
    <glyph glyph-name="e" unicode="e" 
d="M35 423q0 28 8.5 54.5t28 52.5t59 41.5t94.5 15.5t94.5 -15.5t59 -41.5t28 -52.5t8.5 -54.5v-158h-225v-124q0 -14 1 -22t9.5 -16.5t24.5 -8.5t24.5 8.5t9.5 16.5t1 22v72h155v-61q0 -28 -8.5 -54.5t-28 -52.5t-59 -41.5t-94.5 -15.5t-94.5 15.5t-59 41.5t-28 52.5
t-8.5 54.5v271zM190 371h70v63q0 14 -1 22t-9.5 16.5t-24.5 8.5t-24.5 -8.5t-9.5 -16.5t-1 -22v-63z" />
    <glyph glyph-name="f" unicode="f" horiz-adv-x="250" 
d="M10 569h37v41q0 37 9.5 60t30.5 33t41 13t54 3h58v-101h-15q-29 0 -29 -29v-20h44v-112h-38v-457h-155v457h-37v112z" />
    <glyph glyph-name="g" unicode="g" 
d="M415 67q0 -95 -44.5 -133t-143.5 -38q-170 0 -184 122h150q0 -21 9 -30q7 -7 25 -7q34 0 34 40v101l-2 2q-12 -33 -40 -50.5t-66 -17.5q-51 0 -84.5 37t-33.5 100v213q0 37 4.5 65.5t16.5 56.5t38 43.5t64 15.5q40 0 63.5 -19t41.5 -57h2v64h150v-508zM190 210
q0 -43 31 -43q39 0 39 82v150q0 37 -12 54t-27 17q-31 0 -31 -43v-217z" />
    <glyph glyph-name="h" unicode="h" 
d="M35 719h155v-197h2q40 65 112 65q54 0 82.5 -34.5t28.5 -89.5v-463h-155v393q0 15 -1 24.5t-9.5 20t-24.5 10.5q-35 0 -35 -55v-393h-155v719z" />
    <glyph glyph-name="i" unicode="i" horiz-adv-x="250" 
d="M48 575h154v-575h-154v575zM48 719h154v-106h-154v106z" />
    <glyph glyph-name="j" unicode="j" horiz-adv-x="250" 
d="M48 575h154v-516q0 -37 -4 -62t-16 -48.5t-38 -35.5t-65 -12h-75v108q8 -2 14 -2q30 0 30 34v534zM48 719h154v-106h-154v106z" />
    <glyph glyph-name="k" unicode="k" 
d="M194 316l85 259h158l-90 -252l93 -323h-158zM35 719h155v-719h-155v719z" />
    <glyph glyph-name="l" unicode="l" horiz-adv-x="250" 
d="M48 719h154v-719h-154v719z" />
    <glyph glyph-name="m" unicode="m" horiz-adv-x="700" 
d="M42 575h150v-71h1q24 43 50.5 63t70.5 20q90 0 107 -83q26 45 50 64t73 19q55 0 84.5 -34t29.5 -90v-463h-155v386q0 62 -38 62t-38 -62v-386h-154v386q0 62 -38 62t-38 -62v-386h-155v575z" />
    <glyph glyph-name="n" unicode="n" 
d="M35 575h149v-64h2q22 39 49 57.5t69 18.5q54 0 82.5 -34.5t28.5 -89.5v-463h-155v393q0 15 -1 24.5t-9.5 20t-24.5 10.5q-35 0 -35 -55v-393h-155v575z" />
    <glyph glyph-name="o" unicode="o" 
d="M35 423q0 28 8.5 54.5t28 52.5t59 41.5t94.5 15.5t94.5 -15.5t59 -41.5t28 -52.5t8.5 -54.5v-271q0 -28 -8.5 -54.5t-28 -52.5t-59 -41.5t-94.5 -15.5t-94.5 15.5t-59 41.5t-28 52.5t-8.5 54.5v271zM190 141q0 -14 1 -22t9.5 -16.5t24.5 -8.5t24.5 8.5t9.5 16.5t1 22v293
q0 14 -1 22t-9.5 16.5t-24.5 8.5t-24.5 -8.5t-9.5 -16.5t-1 -22v-293z" />
    <glyph glyph-name="p" unicode="p" 
d="M35 575h155v-52h2q33 64 110 64q113 0 113 -146v-281q0 -81 -30 -126.5t-85 -45.5q-78 0 -108 70h-2v-157h-155v674zM190 199q0 -21 0.5 -32.5t4 -28.5t12 -25t22.5 -8q31 0 31 38v292q0 16 -9.5 25.5t-21.5 9.5q-39 0 -39 -73v-198z" />
    <glyph glyph-name="q" unicode="q" 
d="M415 -99h-155v157h-2q-30 -70 -108 -70q-55 0 -85 45.5t-30 126.5v281q0 146 113 146q77 0 110 -64h2v52h155v-674zM260 397q0 73 -40 73q-12 0 -21 -9.5t-9 -25.5v-292q0 -38 30 -38q14 0 23 8t12 25t4 28.5t1 32.5v198z" />
    <glyph glyph-name="r" unicode="r" horiz-adv-x="300" 
d="M35 575h147v-102h2q26 65 43 85q26 29 67 29v-187h-36q-68 0 -68 -73v-327h-155v575z" />
    <glyph glyph-name="s" unicode="s" horiz-adv-x="400" 
d="M22 181h138v-35q0 -52 40 -52q34 0 34 43q0 13 -5 25t-17.5 24t-22 20t-30 22.5t-29.5 21.5q-31 24 -50 43.5t-36 54t-17 73.5q0 80 47 123t126 43q172 0 172 -151v-31h-139v31q0 45 -33 45q-34 0 -34 -39q0 -16 11 -32.5t22.5 -26.5t36.5 -28t36 -27q57 -47 75 -72
q31 -43 31 -99q0 -19 -2 -36t-12.5 -43t-28 -44.5t-52.5 -32t-83 -13.5q-98 0 -138 39.5t-40 115.5v38z" />
    <glyph glyph-name="t" unicode="t" horiz-adv-x="250" 
d="M47 457h-39v112h39v125h155v-125h38v-112h-38v-308q0 -44 20 -44h20v-117h-75q-58 0 -89 21t-31 83v365z" />
    <glyph glyph-name="u" unicode="u" 
d="M415 0h-150v64h-1q-22 -39 -49 -57.5t-69 -18.5q-54 0 -82.5 34.5t-28.5 89.5v463h155v-393q0 -15 1 -24.5t9.5 -20t24.5 -10.5q35 0 35 55v393h155v-575z" />
    <glyph glyph-name="v" unicode="v" horiz-adv-x="400" 
d="M4 575h160l36 -368h2l38 368h155l-105 -575h-181z" />
    <glyph glyph-name="w" unicode="w" horiz-adv-x="650" 
d="M8 575h161l43 -404h2l42 404h144l36 -404h1l50 404h155l-111 -575h-163l-44 382h-2l-39 -382h-162z" />
    <glyph glyph-name="x" unicode="x" 
d="M140 298l-122 277h170l40 -152h1l41 152h165l-120 -277l124 -298h-169l-43 174h-2l-48 -174h-166z" />
    <glyph glyph-name="y" unicode="y" horiz-adv-x="400" 
d="M48 7h35q26 0 26 21q0 13 -10 65l-95 482h159l39 -404h1l40 404h152l-101 -526q-18 -87 -47 -117q-36 -36 -127 -36h-72v111z" />
    <glyph glyph-name="z" unicode="z" horiz-adv-x="400" 
d="M28 575h349v-117l-188 -336h188v-122h-355v117l182 336h-176v122z" />
    <glyph glyph-name="braceleft" unicode="{" horiz-adv-x="300" 
d="M202 -99q-53 0 -87 33t-34 100v164q0 64 -85 64v95q18 0 34.5 3.5t33.5 19t17 41.5v164q0 67 34 100.5t87 33.5h102v-90h-37q-47 0 -47 -58v-172q0 -46 -32.5 -66t-71.5 -22v-1q20 -2 33 -4.5t32 -11.5t29 -29t10 -50v-166q0 -58 47 -58h37v-90h-102z" />
    <glyph glyph-name="bar" unicode="|" horiz-adv-x="200" 
d="M36 731h128v-743h-128v743z" />
    <glyph glyph-name="braceright" unicode="}" horiz-adv-x="300" 
d="M-4 -9h37q48 0 48 58v166q0 30 10 50t29 29t31.5 11.5t32.5 4.5v1q-39 2 -71 22t-32 66v172q0 58 -48 58h-37v90h102q54 0 88 -33t34 -101v-164q0 -26 17 -41.5t33 -19t34 -3.5v-95q-84 0 -84 -64v-164q0 -67 -34 -100t-88 -33h-102v90z" />
    <glyph glyph-name="asciitilde" unicode="~" horiz-adv-x="540" 
d="M478 274q-18 -25 -29.5 -38t-34.5 -26t-49 -13q-37 0 -91 30q-60 33 -104 33q-45 0 -76 -67l-32 117q41 78 113 78q33 0 99 -29q9 -4 31.5 -14.5t36 -15t24.5 -4.5q17 0 33 11.5t24.5 22.5t21.5 32z" />
    <glyph glyph-name="sterling" unicode="&#xa3;" 
d="M18 376h59q-46 94 -46 168q0 87 58 131t144 44q95 0 142 -47.5t47 -136.5v-36h-144v30q0 68 -45 68q-42 0 -42 -50q0 -27 6 -54.5t16.5 -61.5t14.5 -55h118v-79h-110q0 -89 -76 -170q22 0 53 -4.5t43 -4.5q23 0 33 20t10 43h133v-39q0 -71 -42.5 -112.5t-113.5 -41.5
q-31 0 -88.5 12t-84.5 12q-40 0 -81 -19l7 137q74 19 74 133q0 19 -4 34h-81v79z" />
    <glyph glyph-name="currency" unicode="&#xa4;" 
d="M22 204l43 43q-39 51 -39 118q0 60 37 116l-41 41l45 45l41 -41q51 37 117 37t117 -37l41 41l45 -45l-42 -41q38 -55 38 -116t-38 -116l42 -41l-45 -45l-42 41q-51 -38 -116 -38q-62 0 -114 36l-44 -43zM225 262q39 0 66 29t27 74t-27 74t-66 29q-40 0 -66.5 -29
t-26.5 -74t26.5 -74t66.5 -29z" />
    <glyph glyph-name="brokenbar" unicode="&#xa6;" horiz-adv-x="200" 
d="M36 -12v288h128v-288h-128zM36 443v288h128v-288h-128z" />
    <glyph glyph-name="section" unicode="&#xa7;" 
d="M273 330q-87 50 -118 78q-20 -33 -20 -47q0 -19 25.5 -38.5t67.5 -43t59 -37.5q8 4 15.5 16t7.5 22q0 30 -37 50zM267 551v27q0 52 -41 52q-16 0 -27.5 -13.5t-11.5 -30.5q0 -27 24.5 -49.5t60 -41t71 -40.5t60 -58.5t24.5 -83.5q0 -83 -60 -135q42 -46 42 -104
q0 -79 -51 -121.5t-131 -42.5q-88 0 -135.5 45.5t-47.5 134.5h139v-17q0 -24 10 -45t33 -21q20 0 32 13.5t12 33.5q0 26 -25.5 47t-62 39t-72.5 41t-61.5 64.5t-25.5 97.5q0 79 67 129v2q-4 0 -12.5 13t-16 35.5t-7.5 42.5q0 77 49.5 121.5t125.5 44.5q91 0 134 -44t43 -136
h-139z" />
    <glyph glyph-name="copyright" unicode="&#xa9;" horiz-adv-x="792" 
d="M11 359q0 164 110.5 268t274.5 104t274.5 -104t110.5 -268q0 -163 -110.5 -267t-274.5 -104t-274.5 104t-110.5 267zM664 359q0 113 -77 189.5t-191 76.5q-116 0 -192 -76t-76 -190t76.5 -189.5t191.5 -75.5q114 0 191 76.5t77 188.5zM589 306q-11 -72 -58.5 -114.5
t-119.5 -42.5q-92 0 -150 60.5t-58 153.5q0 95 56.5 154.5t149.5 59.5q71 0 118 -41t58 -111h-90q-12 62 -86 62q-42 0 -68 -34.5t-26 -88.5q0 -46 26 -85.5t70 -39.5q34 0 57.5 17t26.5 50h94z" />
    <glyph glyph-name="guillemotleft" unicode="&#xab;" 
d="M128 168l-88 131l90 127h117l-93 -127l91 -131h-117zM291 168l-89 131l90 127h118l-93 -127l91 -131h-117z" />
    <glyph glyph-name="logicalnot" unicode="&#xac;" horiz-adv-x="540" 
d="M370 340h-328v128h456v-295h-128v167z" />
    <glyph glyph-name="registered" unicode="&#xae;" horiz-adv-x="792" 
d="M339 159h-101v400h152q85 0 126.5 -26t41.5 -95q0 -100 -96 -105l102 -174h-116l-92 170h-17v-170zM397 398q28 0 41.5 10.5t13.5 39.5q0 26 -17.5 34t-46.5 8h-49v-92h58zM11 359q0 164 110.5 268t274.5 104t274.5 -104t110.5 -268q0 -163 -110.5 -267t-274.5 -104
t-274.5 104t-110.5 267zM664 359q0 113 -77 189.5t-191 76.5q-116 0 -192 -76t-76 -190t76.5 -189.5t191.5 -75.5q114 0 191 76.5t77 188.5z" />
    <glyph glyph-name="degree" unicode="&#xb0;" horiz-adv-x="360" 
d="M180 431q-63 0 -106 42t-43 102t43 102t106 42t106 -42t43 -102t-43 -102t-106 -42zM104 575q0 -34 21.5 -57.5t54.5 -23.5t54.5 23.5t21.5 57.5t-21.5 57.5t-54.5 23.5t-54.5 -23.5t-21.5 -57.5z" />
    <glyph glyph-name="plusminus" unicode="&#xb1;" horiz-adv-x="540" 
d="M206 531h128v-92h164v-128h-164v-91h-128v91h-164v128h164v92zM42 182h456v-128h-456v128z" />
    <glyph glyph-name="mu" unicode="&#xb5;" 
d="M415 0h-150v64h-1q-35 -61 -80 -70v-93h-149v674h155v-393q0 -15 1 -24.5t9.5 -20t24.5 -10.5q35 0 35 55v393h155v-575z" />
    <glyph glyph-name="mu" unicode="&#x3bc;" 
d="M415 0h-150v64h-1q-35 -61 -80 -70v-93h-149v674h155v-393q0 -15 1 -24.5t9.5 -20t24.5 -10.5q35 0 35 55v393h155v-575z" />
    <glyph glyph-name="paragraph" unicode="&#xb6;" horiz-adv-x="558" 
d="M185 405q-97 0 -148.5 40.5t-51.5 113.5q0 90 58 125t163 35h283v-797h-107v712h-90v-712h-107v483zM185 -78h107h-107z" />
    <glyph glyph-name="periodcentered" unicode="&#xb7;" horiz-adv-x="278" 
d="M227 253q0 -37 -25.5 -62.5t-62.5 -25.5t-62.5 25.5t-25.5 62.5t25.5 62.5t62.5 25.5t62.5 -25.5t25.5 -62.5z" />
    <glyph glyph-name="periodcentered" unicode="&#x2219;" horiz-adv-x="278" 
d="M227 253q0 -37 -25.5 -62.5t-62.5 -25.5t-62.5 25.5t-25.5 62.5t25.5 62.5t62.5 25.5t62.5 -25.5t25.5 -62.5z" />
    <glyph glyph-name="guillemotright" unicode="&#xbb;" 
d="M132 299l-92 127h117l90 -127l-89 -131h-117zM295 299l-93 127h117l91 -127l-89 -131h-117z" />
    <glyph glyph-name="divide" unicode="&#xf7;" horiz-adv-x="540" 
d="M42 229v127h456v-127h-456zM358 479q0 -37 -25.5 -62.5t-62.5 -25.5t-62.5 25.5t-25.5 62.5t25.5 62.5t62.5 25.5t62.5 -25.5t25.5 -62.5zM270 18q-37 0 -62.5 26t-25.5 62q0 38 25 63t63 25q37 0 62.5 -25.5t25.5 -62.5q0 -36 -25.5 -62t-62.5 -26z" />
    <glyph glyph-name="florin" unicode="&#x192;" 
d="M100 490h81l10 59q14 82 48 126t112 44q51 0 94 -4l-19 -106q-18 4 -33 4q-25 0 -35 -12.5t-19 -55.5l-12 -55h81l-17 -101h-82l-51 -285q-20 -109 -57 -158.5t-100 -49.5q-60 0 -97 5l17 105q20 -4 33 -4q19 0 32.5 23t24.5 85l52 279h-79z" />
    <glyph glyph-name="Delta" unicode="&#x394;" horiz-adv-x="550" 
d="M269 719l275 -719h-184h-188h-166zM152 112h177l-85 264z" />
    <glyph glyph-name="Delta" unicode="&#x2206;" horiz-adv-x="550" 
d="M269 719l275 -719h-184h-188h-166zM152 112h177l-85 264z" />
    <glyph glyph-name="afii10023" unicode="&#x401;" 
d="M251 739v117h101v-117h-101zM105 739v117h101v-117h-101zM37 719h368v-139h-203v-143h178v-138h-178v-160h211v-139h-376v719z" />
    <glyph glyph-name="afii10051" unicode="&#x402;" horiz-adv-x="581" 
d="M544 196q0 -208 -152 -208q-33 0 -61 11v117q48 0 48 66v119q0 19 -1 28.5t-5 21.5t-14.5 17.5t-27.5 5.5t-27.5 -5.5t-14.5 -17.5t-5 -21.5t-1 -28.5v-301h-166v580h-107v139h380v-139h-107v-93q22 20 60 20q89 0 145 -56.5t56 -151.5v-103z" />
    <glyph glyph-name="afii10052" unicode="&#x403;" horiz-adv-x="400" 
d="M37 719h345v-139h-180v-580h-165v719zM223 860h139l-95 -123h-86z" />
    <glyph glyph-name="afii10053" unicode="&#x404;" horiz-adv-x="500" 
d="M205 182q0 -66 48 -66t48 66v87h165v-73q0 -96 -57 -152t-156 -56q-98 0 -155.5 56t-57.5 152v327q0 102 58.5 155t154.5 53t154.5 -53t58.5 -155v-49h-165v63q0 13 -1 21.5t-5 20.5t-14.5 18t-27.5 6t-27.5 -6t-14.5 -18t-5 -20.5t-1 -21.5v-100h117v-138h-117v-117z
" />
    <glyph glyph-name="afii10054" unicode="&#x405;" horiz-adv-x="500" 
d="M191 244v-53q0 -75 56 -75q27 0 42 15.5t15 40.5q0 15 -6 30t-13 26t-23.5 26t-25.5 22.5t-31.5 24.5t-31.5 24q-3 3 -19.5 15.5t-20.5 16t-18 15t-18.5 16.5t-15 17t-14.5 20t-11 21t-9 25l-4.5 27t-2.5 31q0 202 211 202q105 0 156 -47.5t51 -133.5v-65h-155v39
q0 79 -52 79q-26 0 -41.5 -14.5t-15.5 -39.5q0 -12 7 -25.5t23.5 -29t29.5 -26.5t39.5 -31.5t38.5 -30.5q3 -3 30.5 -24t34.5 -28t26.5 -29t26 -40t13.5 -48t7 -65q0 -29 -11.5 -58.5t-35.5 -59t-70.5 -48t-107.5 -18.5q-58 0 -102 17t-67 44.5t-34 57t-11 59.5v78h160z" />
    <glyph glyph-name="afii10055" unicode="&#x406;" horiz-adv-x="250" 
d="M42 719h166v-719h-166v719z" />
    <glyph glyph-name="afii10056" unicode="&#x407;" horiz-adv-x="250" 
d="M42 719h166v-719h-166v719zM147 739v117h101v-117h-101zM1 739v117h101v-117h-101z" />
    <glyph glyph-name="afii10057" unicode="&#x408;" 
d="M413 179q0 -98 -49.5 -144.5t-150.5 -46.5q-191 0 -191 191v105h160v-122q0 -14 1.5 -22.5t8.5 -16t21 -7.5q34 0 34 47v556h166v-540z" />
    <glyph glyph-name="afii10058" unicode="&#x409;" horiz-adv-x="785" 
d="M498 122h35q39 0 50 20.5t11 77.5q0 46 -11.5 72t-46.5 26h-38v-196zM332 0v597h-80q0 -11 -0.5 -81t-2 -108.5t-4.5 -100t-9 -106.5t-15 -76q-38 -130 -144 -130q-19 0 -44 9t-31 17v128q15 -18 32 -18t26 7.5t16 28.5q7 18 11 54t6 94t2.5 112t2 141.5t2.5 150.5h398
v-284h31q109 0 169.5 -56t60.5 -157q0 -222 -191 -222h-236z" />
    <glyph glyph-name="afii10059" unicode="&#x40a;" horiz-adv-x="753" 
d="M463 122h35q39 0 50 20.5t11 77.5q0 46 -11.5 72t-46.5 26h-38v-196zM463 435h31q109 0 169.5 -56t60.5 -157q0 -222 -191 -222h-235v306h-96v-306h-165v719h165v-269h96v269h165v-284z" />
    <glyph glyph-name="afii10060" unicode="&#x40b;" horiz-adv-x="400" 
d="M283 0h-166v580h-107v139h380v-139h-107v-104q99 0 156 -56t57 -152v-268h-165v270q0 19 -1 28.5t-5 21.5t-14.5 17.5t-27.5 5.5v-343z" />
    <glyph glyph-name="afii10061" unicode="&#x40c;" horiz-adv-x="500" 
d="M202 719v-267h32q20 0 32.5 9.5t17.5 31.5t6 39t1 52q0 113 19 136h159q-3 -4 -5.5 -9t-4.5 -12t-3 -13t-2 -16t-1.5 -16t-0.5 -18v-17v-18.5v-16.5q0 -35 -3.5 -60.5t-13.5 -52t-30.5 -45t-52.5 -28.5v-1q53 -9 81.5 -39t28.5 -76v-146v-16v-18v-17t0.5 -18t1.5 -16.5
t2 -16t3 -13t4.5 -12.5t5.5 -9h-164q-19 23 -19 136v118q0 33 -10.5 46t-44.5 13h-39v-313h-165v719h165zM253 860h139l-95 -123h-86z" />
    <glyph glyph-name="afii10062" unicode="&#x40e;" 
d="M40 8v122q14 -14 37 -14t31.5 19t-4.5 57l-98 527h88q8 -10 37.5 -24t48.5 -14l26 -200l14 -194h2l19 194l30 199q21 0 52.5 14t38.5 25h82l-106 -526q-41 -205 -213 -205q-19 0 -48 6.5t-37 13.5zM179 819q0 -13 14.5 -25.5t34.5 -12.5t35 12.5t15 25.5h103
q0 -50 -34.5 -86t-118.5 -36t-118 36t-34 86h103z" />
    <glyph glyph-name="afii10145" unicode="&#x40f;" horiz-adv-x="500" 
d="M180 0h-143v719h165v-580h96v580h165v-719h-143v-132h-140v132z" />
    <glyph glyph-name="afii10017" unicode="&#x410;" horiz-adv-x="500" 
d="M139 719h220l135 -719h-174l-15 128h-116l-17 -128h-166zM206 256h83l-39 351h-2z" />
    <glyph glyph-name="afii10018" unicode="&#x411;" horiz-adv-x="500" 
d="M202 122h35q39 0 50 20.5t11 77.5q0 46 -11.5 72t-46.5 26h-38v-196zM423 719v-139h-221v-145h31q109 0 169.5 -56t60.5 -157q0 -222 -191 -222h-235v719h386z" />
    <glyph glyph-name="afii10019" unicode="&#x412;" horiz-adv-x="500" 
d="M37 719h229q93 0 136 -39t43 -130q0 -32 -3 -55t-12 -47t-27.5 -40.5t-47.5 -26.5v-2q58 -11 83 -52.5t25 -113.5q0 -213 -191 -213h-235v719zM202 122h35q39 0 50 20.5t11 77.5q0 46 -11.5 72t-46.5 26h-38v-196zM202 435h31q35 0 46.5 21.5t11.5 61.5q0 41 -11.5 60
t-40.5 19h-37v-162z" />
    <glyph glyph-name="afii10020" unicode="&#x413;" horiz-adv-x="392" 
d="M37 719h345v-139h-180v-580h-165v719z" />
    <glyph glyph-name="afii10021" unicode="&#x414;" horiz-adv-x="550" 
d="M207 139h125v458h-80q-4 -116 -7 -174.5t-13 -149t-25 -134.5zM100 719h398v-580h46v-271h-139v132h-262v-132h-138v271h41q16 35 26.5 85.5t15.5 121t7 118.5t3 137t2 118z" />
    <glyph glyph-name="afii10022" unicode="&#x415;" 
d="M37 719h368v-139h-203v-143h178v-138h-178v-160h211v-139h-376v719z" />
    <glyph glyph-name="afii10024" unicode="&#x416;" horiz-adv-x="760" 
d="M298 313h-40q-35 0 -44.5 -12.5t-9.5 -46.5v-118q0 -113 -19 -136h-164q18 22 18 136v146q0 46 28 76t81 39v1q-32 10 -52.5 28.5t-30.5 45t-13.5 52t-3.5 60.5v16.5v18.5v17t-0.5 18t-1.5 16t-2 16t-3 13t-4.5 12t-5.5 9h160q19 -23 19 -136q0 -35 1 -52t6 -39t17 -31.5
t32 -9.5h32v267h165v-267h32q20 0 32.5 9.5t17.5 31.5t6 39t1 52q0 113 18 136h160q-3 -4 -5.5 -9t-4.5 -12t-3 -13t-2 -16t-1.5 -16t-0.5 -18v-17v-18.5v-16.5q0 -35 -3.5 -60.5t-13.5 -52t-30.5 -45t-52.5 -28.5v-1q53 -9 81.5 -39t28.5 -76v-146v-16v-18v-17t0.5 -18
t1.5 -16.5t2 -16t3 -13t4.5 -12.5t5.5 -9h-164q-19 23 -19 136v118q0 34 -9.5 46.5t-45.5 12.5h-39v-313h-165v313z" />
    <glyph glyph-name="afii10025" unicode="&#x417;" horiz-adv-x="500" 
d="M36 244h155v-79q0 -22 14.5 -38t38.5 -16q30 0 43.5 23t13.5 86q0 66 -27.5 90.5t-97.5 18.5v117h37q33 0 55 18t22 71q0 40 -11 56.5t-35 16.5q-22 0 -36 -13t-14 -39v-45h-154q-13 220 206 220q205 0 205 -179q0 -60 -16 -97.5t-64 -59.5q94 -31 94 -172
q0 -115 -51.5 -175t-167.5 -60q-96 0 -152 46t-57 137z" />
    <glyph glyph-name="afii10026" unicode="&#x418;" horiz-adv-x="500" 
d="M463 0h-160v377h-2l-95 -377h-169v719h160v-377h2l96 377h168v-719z" />
    <glyph glyph-name="afii10027" unicode="&#x419;" horiz-adv-x="500" 
d="M463 719v-719h-160v377h-2l-96 -377h-169v719h69q50 -40 91 -40v-337h2l86 336q28 0 62 12.5t48 28.5h69zM98 819h103q0 -13 14.5 -25.5t34.5 -12.5t35 12.5t15 25.5h103q0 -50 -34.5 -86t-118.5 -36t-118 36t-34 86z" />
    <glyph glyph-name="afii10028" unicode="&#x41a;" horiz-adv-x="500" 
d="M202 719v-267h32q20 0 32.5 9.5t17.5 31.5t6 39t1 52q0 113 19 136h159q-3 -4 -5.5 -9t-4.5 -12t-3 -13t-2 -16t-1.5 -16t-0.5 -18v-17v-18.5v-16.5q0 -35 -3.5 -60.5t-13.5 -52t-30.5 -45t-52.5 -28.5v-1q53 -9 81.5 -39t28.5 -76v-146v-16v-18v-17t0.5 -18t1.5 -16.5
t2 -16t3 -13t4.5 -12.5t5.5 -9h-164q-19 23 -19 136v118q0 33 -10.5 46t-44.5 13h-39v-313h-165v719h165z" />
    <glyph glyph-name="afii10029" unicode="&#x41b;" horiz-adv-x="550" 
d="M17 21v128q15 -18 32 -18t26 7.5t16 28.5q7 18 11 54t6 94t2.5 112t2 141.5t2.5 150.5h398v-719h-166v597h-80q0 -11 -0.5 -81t-2 -108.5t-4.5 -100t-9 -106.5t-15 -76q-38 -130 -144 -130q-19 0 -44 9t-31 17z" />
    <glyph glyph-name="afii10030" unicode="&#x41c;" horiz-adv-x="700" 
d="M41 719h261l47 -356h2l47 356h261v-719h-160v559h-2l-93 -559h-108l-93 559h-1v-559h-161v719z" />
    <glyph glyph-name="afii10031" unicode="&#x41d;" horiz-adv-x="500" 
d="M37 719h165v-269h96v269h165v-719h-165v306h-96v-306h-165v719z" />
    <glyph glyph-name="afii10032" unicode="&#x41e;" horiz-adv-x="500" 
d="M202 182q0 -66 48 -66t48 66v355q0 13 -1 21.5t-5 20.5t-14.5 18t-27.5 6t-27.5 -6t-14.5 -18t-5 -20.5t-1 -21.5v-355zM37 523q0 102 58.5 155t154.5 53t154.5 -53t58.5 -155v-327q0 -96 -57 -152t-156 -56q-98 0 -155.5 56t-57.5 152v327z" />
    <glyph glyph-name="afii10033" unicode="&#x41f;" horiz-adv-x="500" 
d="M37 719h426v-719h-165v580h-96v-580h-165v719z" />
    <glyph glyph-name="afii10034" unicode="&#x420;" horiz-adv-x="500" 
d="M202 413h42q38 0 49.5 19.5t11.5 71.5q0 32 -4.5 50t-17.5 26t-24.5 9.5t-37.5 1.5h-19v-178zM37 719h177q73 0 117.5 -8t78.5 -31t47.5 -66.5t13.5 -113.5q0 -44 -7 -78.5t-24.5 -67.5t-54 -51t-89.5 -18h-94v-285h-165v719z" />
    <glyph glyph-name="afii10035" unicode="&#x421;" horiz-adv-x="500" 
d="M37 523q0 102 58.5 155t154.5 53t154.5 -53t58.5 -155v-67h-165v81q0 13 -1 21.5t-5 20.5t-14.5 18t-27.5 6t-27.5 -6t-14.5 -18t-5 -20.5t-1 -21.5v-355q0 -66 48 -66t48 66v105h165v-91q0 -96 -57 -152t-156 -56q-98 0 -155.5 56t-57.5 152v327z" />
    <glyph glyph-name="afii10036" unicode="&#x422;" horiz-adv-x="400" 
d="M10 719h380v-139h-107v-580h-166v580h-107v139z" />
    <glyph glyph-name="afii10037" unicode="&#x423;" 
d="M40 8v122q14 -14 37 -14t31.5 19t-4.5 57l-98 527h169l31 -238l14 -194h2l19 194l36 238h167l-106 -526q-42 -205 -213 -205q-19 0 -48 6.5t-37 13.5z" />
    <glyph glyph-name="afii10038" unicode="&#x424;" horiz-adv-x="749" 
d="M292 472q0 14 -1 22t-5 20t-14.5 18t-27.5 6t-27.5 -6t-14.5 -18t-5 -20t-1 -22v-225q0 -66 48 -66t48 66v225zM457 247q0 -66 48 -66t48 66v225q0 14 -1 22t-5 20t-14.5 18t-27.5 6t-27.5 -6t-14.5 -18t-5 -20t-1 -22v-225zM523 666q84 0 139.5 -54t55.5 -154v-197
q0 -95 -54.5 -151.5t-140.5 -56.5q-43 0 -66 17v-70h-165v70q-23 -17 -66 -17q-87 0 -141 56.5t-54 151.5v197q0 100 55.5 154t139.5 54q48 0 66 -17v70h165v-70q17 17 66 17z" />
    <glyph glyph-name="afii10039" unicode="&#x425;" horiz-adv-x="500" 
d="M148 388l-131 331h178l57 -204h2l57 204h172l-132 -337l140 -382h-173l-71 232h-1l-65 -232h-172z" />
    <glyph glyph-name="afii10040" unicode="&#x426;" horiz-adv-x="518" 
d="M371 0h-334v719h165v-580h96v580h165v-580h48v-271h-140v132z" />
    <glyph glyph-name="afii10041" unicode="&#x427;" horiz-adv-x="500" 
d="M250 286q-118 0 -165.5 57t-47.5 162v214h165v-232q0 -25 1.5 -37.5t12.5 -24t34 -11.5h48v305h165v-719h-165v286h-48z" />
    <glyph glyph-name="afii10042" unicode="&#x428;" horiz-adv-x="760" 
d="M37 0v719h165v-580h96v580h165v-580h96v580h165v-719h-687z" />
    <glyph glyph-name="afii10043" unicode="&#x429;" horiz-adv-x="778" 
d="M37 0v719h165v-580h96v580h165v-580h96v580h165v-580h48v-271h-140v132h-595z" />
    <glyph glyph-name="afii10044" unicode="&#x42a;" horiz-adv-x="625" 
d="M337 122h34q39 0 50 20.5t11 77.5q0 46 -11.5 72t-46.5 26h-37v-196zM171 580h-161v139h327v-284h30q109 0 170 -56t61 -157q0 -222 -192 -222h-235v580z" />
    <glyph glyph-name="afii10045" unicode="&#x42b;" horiz-adv-x="710" 
d="M202 122h35q39 0 50 20.5t11 77.5q0 46 -11.5 72t-46.5 26h-38v-196zM202 719v-284h31q109 0 169.5 -56t60.5 -157q0 -222 -191 -222h-235v719h165zM507 719h166v-719h-166v719z" />
    <glyph glyph-name="afii10046" unicode="&#x42c;" horiz-adv-x="490" 
d="M202 122h35q39 0 50 20.5t11 77.5q0 46 -11.5 72t-46.5 26h-38v-196zM202 719v-284h31q109 0 169.5 -56t60.5 -157q0 -222 -191 -222h-235v719h165z" />
    <glyph glyph-name="afii10047" unicode="&#x42d;" horiz-adv-x="500" 
d="M298 299h-117v138h117v100q0 13 -1 21.5t-5 20.5t-14.5 18t-27.5 6t-27.5 -6t-14.5 -18t-5 -20.5t-1 -21.5v-63h-165v49q0 102 58.5 155t154.5 53t154.5 -53t58.5 -155v-327q0 -96 -57.5 -152t-155.5 -56q-99 0 -156 56t-57 152v73h165v-87q0 -66 48 -66t48 66v117z" />
    <glyph glyph-name="afii10048" unicode="&#x42e;" horiz-adv-x="753" 
d="M455 182q0 -66 48 -66q47 0 47 66v355q0 13 -1 21.5t-5 20.5t-14 18t-27 6t-27.5 -6t-14.5 -18t-5 -20.5t-1 -21.5v-355zM289 450v73q0 102 58.5 155t155.5 53q96 0 154.5 -53t58.5 -155v-327q0 -96 -57.5 -152t-155.5 -56q-99 0 -156.5 56t-57.5 152v110h-86v-306h-166
v719h166v-269h86z" />
    <glyph glyph-name="afii10049" unicode="&#x42f;" horiz-adv-x="500" 
d="M463 0h-166v310h-31q-34 0 -48.5 -14t-14.5 -45v-115q0 -113 -18 -136h-164q3 4 5.5 9t4.5 12.5t3 13t2 16t1.5 16.5t0.5 18v17v18v16v127q0 44 26 74.5t70 39.5v2q-61 19 -80.5 57t-19.5 109q0 96 48.5 135t161.5 39h219v-719zM297 597h-32q-45 0 -55 -15.5t-10 -59.5
q0 -27 2.5 -42t16 -27.5t38.5 -12.5h40v157z" />
    <glyph glyph-name="afii10065" unicode="&#x430;" horiz-adv-x="445" 
d="M410 0h-142v44h-2q-18 -26 -47.5 -41t-62.5 -15t-56.5 10t-37 25t-21 39.5t-9.5 47t-2 54.5q0 73 31.5 109.5t85.5 59.5q6 3 27.5 11.5t28.5 12t21.5 12.5t20 16.5t10.5 20t5 27.5q0 24 -7.5 36t-28.5 12q-39 0 -39 -40v-47h-144v52q0 63 50.5 102t131.5 39
q102 0 144.5 -42.5t42.5 -137.5v-407zM260 289l-43 -32q-27 -19 -27 -51v-76q0 -46 34 -46q36 0 36 50v155z" />
    <glyph glyph-name="afii10066" unicode="&#x431;" 
d="M190 141q0 -14 1 -22t9.5 -16.5t24.5 -8.5t24.5 8.5t9.5 16.5t1 22v293q0 14 -1 22t-9.5 16.5t-24.5 8.5t-24.5 -8.5t-9.5 -16.5t-1 -22v-293zM415 423v-271q0 -28 -8.5 -54.5t-28 -52.5t-59 -41.5t-94.5 -15.5t-94.5 15.5t-59 41.5t-28 52.5t-8.5 54.5l1 394
q0 89 64 151q43 41 127 41q67 0 67 29h106q0 -67 -36.5 -104t-128.5 -37q-38 0 -52.5 -19t-14.5 -71h2q27 45 92 45q72 0 112.5 -50t40.5 -108z" />
    <glyph glyph-name="afii10067" unicode="&#x432;" horiz-adv-x="440" 
d="M34 575h233q74 0 108.5 -31.5t34.5 -103.5q0 -109 -79 -135v-2q93 -17 93 -133q0 -170 -152 -170h-238v575zM186 98h32q31 0 39.5 16t8.5 62q0 24 -2.5 39t-13 27t-30.5 12h-34v-156zM186 348h28q29 0 38 17t9 49q0 33 -9 48.5t-33 15.5h-33v-130z" />
    <glyph glyph-name="afii10068" unicode="&#x433;" horiz-adv-x="380" 
d="M368 453h-178v-453h-155v575h333v-122z" />
    <glyph glyph-name="afii10069" unicode="&#x434;" horiz-adv-x="475" 
d="M70 575h360v-453h35v-226h-134v104h-192v-104h-134v226h35q15 48 22.5 161t7.5 203v89zM185 122h90v331h-60q4 -229 -30 -331z" />
    <glyph glyph-name="afii10070" unicode="&#x435;" 
d="M35 423q0 28 8.5 54.5t28 52.5t59 41.5t94.5 15.5t94.5 -15.5t59 -41.5t28 -52.5t8.5 -54.5v-158h-225v-124q0 -14 1 -22t9.5 -16.5t24.5 -8.5t24.5 8.5t9.5 16.5t1 22v72h155v-61q0 -28 -8.5 -54.5t-28 -52.5t-59 -41.5t-94.5 -15.5t-94.5 15.5t-59 41.5t-28 52.5
t-8.5 54.5v271zM190 371h70v63q0 14 -1 22t-9.5 16.5t-24.5 8.5t-24.5 -8.5t-9.5 -16.5t-1 -22v-63z" />
    <glyph glyph-name="afii10072" unicode="&#x436;" horiz-adv-x="654" 
d="M249 241h-25q-28 0 -36.5 -19.5t-8.5 -71.5v-42q0 -85 -18 -108h-154q8 10 12 29.5t4.5 32.5t0.5 46v99q0 40 28.5 67.5t68.5 34.5v2q-35 8 -60 40.5t-25 73.5v42q0 33 -0.5 46t-4.5 32.5t-12 29.5h147q18 -23 18 -101v-26q0 -91 45 -91h20v218h154v-218h20q45 0 45 91
v26q0 78 18 101h147q-8 -10 -12 -29.5t-4.5 -32.5t-0.5 -46v-42q0 -41 -25 -73.5t-60 -40.5v-2q38 -7 67.5 -40t29.5 -74v-87q0 -33 0.5 -46t4.5 -32.5t12 -29.5h-154q-18 23 -18 108v42q0 52 -8.5 71.5t-36.5 19.5h-25v-241h-154v241z" />
    <glyph glyph-name="afii10073" unicode="&#x437;" horiz-adv-x="400" 
d="M380 179q0 -95 -40.5 -143t-138.5 -48q-85 0 -132.5 37t-47.5 112v53h138v-52q0 -44 39 -44q22 0 30.5 18.5t8.5 58.5q0 48 -19 69t-72 15v93h25q60 0 60 77q0 17 -2 28t-9.5 19.5t-21.5 8.5q-20 0 -28.5 -9t-8.5 -32v-34h-137q-4 91 35.5 136t141.5 45q85 0 129.5 -31
t44.5 -109q0 -116 -80 -136v-3q42 -7 63.5 -42t21.5 -87z" />
    <glyph glyph-name="afii10074" unicode="&#x438;" 
d="M415 0h-150v64h-1q-22 -39 -49 -57.5t-69 -18.5q-54 0 -82.5 34.5t-28.5 89.5v463h155v-393q0 -15 1 -24.5t9.5 -20t24.5 -10.5q35 0 35 55v393h155v-575z" />
    <glyph glyph-name="afii10075" unicode="&#x439;" 
d="M357 715q0 -55 -38 -77.5t-91 -22.5q-52 0 -90 22.5t-38 77.5h101q0 -31 27 -31q28 0 28 31h101zM415 0h-150v64h-1q-22 -39 -49 -57.5t-69 -18.5q-54 0 -82.5 34.5t-28.5 89.5v463h155v-393q0 -15 1 -24.5t9.5 -20t24.5 -10.5q35 0 35 55v393h155v-575z" />
    <glyph glyph-name="afii10076" unicode="&#x43a;" horiz-adv-x="440" 
d="M317 309q38 -7 67.5 -40t29.5 -74v-87q0 -33 0.5 -46t4.5 -32.5t12 -29.5h-154q-18 23 -18 108v42q0 52 -8.5 71.5t-36.5 19.5h-25v-241h-154v575h154v-218h20q45 0 45 91v26q0 78 18 101h147q-8 -10 -12 -29.5t-4.5 -32.5t-0.5 -46v-42q0 -41 -25 -73.5t-60 -40.5v-2z
" />
    <glyph glyph-name="afii10077" unicode="&#x43b;" horiz-adv-x="472" 
d="M77 575h360v-575h-155v453h-61q-6 -281 -13 -330q-6 -45 -21 -72q-32 -58 -116 -58q-44 0 -68 18v101q13 -8 31 -8q17 0 26 21q17 42 17 450z" />
    <glyph glyph-name="afii10078" unicode="&#x43c;" horiz-adv-x="634" 
d="M183 376l7 -86v-290h-155v575h200l80 -353h4l80 353h200v-575h-155v290l7 86l-78 -376h-112z" />
    <glyph glyph-name="afii10079" unicode="&#x43d;" 
d="M260 575h155v-575h-155v249h-70v-249h-155v575h155v-204h70v204z" />
    <glyph glyph-name="afii10080" unicode="&#x43e;" 
d="M35 423q0 28 8.5 54.5t28 52.5t59 41.5t94.5 15.5t94.5 -15.5t59 -41.5t28 -52.5t8.5 -54.5v-271q0 -28 -8.5 -54.5t-28 -52.5t-59 -41.5t-94.5 -15.5t-94.5 15.5t-59 41.5t-28 52.5t-8.5 54.5v271zM190 141q0 -14 1 -22t9.5 -16.5t24.5 -8.5t24.5 8.5t9.5 16.5t1 22v293
q0 14 -1 22t-9.5 16.5t-24.5 8.5t-24.5 -8.5t-9.5 -16.5t-1 -22v-293z" />
    <glyph glyph-name="afii10081" unicode="&#x43f;" 
d="M35 575h149v-64h2q22 39 49 57.5t69 18.5q54 0 82.5 -34.5t28.5 -89.5v-463h-155v393q0 15 -1 24.5t-9.5 20t-24.5 10.5q-35 0 -35 -55v-393h-155v575z" />
    <glyph glyph-name="afii10082" unicode="&#x440;" 
d="M35 575h155v-36h2q32 48 110 48q113 0 113 -146v-281q0 -81 -30 -126.5t-85 -45.5q-81 0 -108 52h-2v-196h-155v731zM190 199q0 -21 0.5 -32.5t4 -28.5t12 -25t22.5 -8q31 0 31 38v292q0 16 -9.5 25.5t-21.5 9.5q-39 0 -39 -73v-198z" />
    <glyph glyph-name="afii10083" unicode="&#x441;" 
d="M35 423q0 28 8.5 54.5t28 52.5t59 41.5t94.5 15.5t94.5 -15.5t59 -41.5t28 -52.5t8.5 -54.5v-61h-155v72q0 14 -1 22t-9.5 16.5t-24.5 8.5t-24.5 -8.5t-9.5 -16.5t-1 -22v-293q0 -14 1 -22t9.5 -16.5t24.5 -8.5t24.5 8.5t9.5 16.5t1 22v104h155v-93q0 -28 -8.5 -54.5
t-28 -52.5t-59 -41.5t-94.5 -15.5t-94.5 15.5t-59 41.5t-28 52.5t-8.5 54.5v271z" />
    <glyph glyph-name="afii10084" unicode="&#x442;" horiz-adv-x="700" 
d="M42 575h150v-71h1q24 43 50.5 63t70.5 20q90 0 107 -83q26 45 50 64t73 19q55 0 84.5 -34t29.5 -90v-463h-155v386q0 62 -38 62t-38 -62v-386h-154v386q0 62 -38 62t-38 -62v-386h-155v575z" />
    <glyph glyph-name="afii10085" unicode="&#x443;" horiz-adv-x="404" 
d="M51 -43q13 -10 35 -10q10 0 16.5 1.5t12 10.5t5.5 25q0 15 -18 109l-95 482h159l39 -404h1l40 404h152l-101 -526q-25 -127 -56 -165q-39 -48 -118 -48q-51 0 -72 13v108z" />
    <glyph glyph-name="afii10086" unicode="&#x444;" horiz-adv-x="675" 
d="M260 397q0 73 -39 73q-12 0 -21.5 -9.5t-9.5 -25.5v-292q0 -38 31 -38q14 0 22.5 8t12 25t4 28.5t0.5 32.5v198zM415 199q0 -21 0.5 -32.5t4 -28.5t12 -25t22.5 -8q31 0 31 38v292q0 16 -9.5 25.5t-21.5 9.5q-39 0 -39 -73v-198zM260 36h-2q-19 -30 -42.5 -39t-65.5 -9
q-55 0 -85 45.5t-30 126.5v281q0 146 113 146q83 0 110 -31h2v163h155v-163h2q30 31 110 31q113 0 113 -146v-281q0 -81 -30 -126.5t-85 -45.5q-43 0 -67 9t-41 39h-2v-192h-155v192z" />
    <glyph glyph-name="afii10087" unicode="&#x445;" 
d="M140 298l-122 277h170l40 -152h1l41 152h165l-120 -277l124 -298h-169l-43 174h-2l-48 -174h-166z" />
    <glyph glyph-name="afii10088" unicode="&#x446;" horiz-adv-x="460" 
d="M415 122h35v-226h-124v104q-29 0 -44.5 16t-15.5 32l-1 16h-1q-22 -39 -49 -57.5t-69 -18.5q-54 0 -82.5 34.5t-28.5 89.5v463h155v-393q0 -15 1 -24.5t9.5 -20t24.5 -10.5q35 0 35 55v393h155v-453z" />
    <glyph glyph-name="afii10089" unicode="&#x447;" 
d="M260 234h-1q-9 -9 -42.5 -16t-66.5 -7q-54 0 -84.5 35.5t-30.5 90.5v238h155v-213q0 -15 1 -24.5t9.5 -20t24.5 -10.5q24 0 35 15v253h155v-575h-155v234z" />
    <glyph glyph-name="afii10090" unicode="&#x448;" horiz-adv-x="670" 
d="M266 64h-2q-22 -39 -49 -57.5t-69 -18.5q-54 0 -82.5 34.5t-28.5 89.5v463h155v-393q0 -15 1 -24.5t9.5 -20t24.5 -10.5q35 0 35 55v393h155v-393q0 -15 1 -24.5t9.5 -20t24.5 -10.5q35 0 35 55v393h155v-575h-150v64h-1q-22 -39 -49 -57.5t-69 -18.5q-48 0 -73.5 25.5
t-31.5 50.5z" />
    <glyph glyph-name="afii10091" unicode="&#x449;" horiz-adv-x="680" 
d="M640 122h35v-226h-124v104q-25 0 -40.5 16t-18.5 32l-2 16h-1q-22 -39 -49 -57.5t-69 -18.5q-48 0 -73.5 25.5t-31.5 50.5h-2q-22 -39 -49 -57.5t-69 -18.5q-54 0 -82.5 34.5t-28.5 89.5v463h155v-393q0 -15 1 -24.5t9.5 -20t24.5 -10.5q35 0 35 55v393h155v-393
q0 -15 1 -24.5t9.5 -20t24.5 -10.5q35 0 35 55v393h155v-453z" />
    <glyph glyph-name="afii10092" unicode="&#x44a;" horiz-adv-x="530" 
d="M135 0v453h-122v122h277v-204h72q61 0 107 -40t46 -106v-65q0 -76 -47 -118t-108 -42h-225zM290 105h39q31 0 31 38v88q0 16 -9.5 25.5t-21.5 9.5h-39v-161z" />
    <glyph glyph-name="afii10093" unicode="&#x44b;" horiz-adv-x="635" 
d="M447 575h154v-575h-154v575zM35 575h155v-204h72q61 0 107 -40t46 -106v-65q0 -76 -47 -118t-108 -42h-225v575zM190 105h39q31 0 31 38v88q0 16 -9.5 25.5t-21.5 9.5h-39v-161z" />
    <glyph glyph-name="afii10094" unicode="&#x44c;" horiz-adv-x="435" 
d="M36 575h155v-204h72q61 0 107 -40t46 -106v-65q0 -76 -47 -118t-108 -42h-225v575zM191 105h39q31 0 31 38v88q0 16 -9.5 25.5t-21.5 9.5h-39v-161z" />
    <glyph glyph-name="afii10095" unicode="&#x44d;" horiz-adv-x="446" 
d="M145 249v106h111v79q0 14 -1 22t-9.5 16.5t-24.5 8.5t-24.5 -8.5t-9.5 -16.5t-1 -22v-36h-155v25q0 28 8.5 54.5t28 52.5t59 41.5t94.5 15.5t94.5 -15.5t59 -41.5t28 -52.5t8.5 -54.5v-271q0 -28 -8.5 -54.5t-28 -52.5t-59 -41.5t-94.5 -15.5t-94.5 15.5t-59 41.5
t-28 52.5t-8.5 54.5v40h155v-51q0 -14 1 -22t9.5 -16.5t24.5 -8.5t24.5 8.5t9.5 16.5t1 22v108h-111z" />
    <glyph glyph-name="afii10096" unicode="&#x44e;" horiz-adv-x="670" 
d="M410 141q0 -14 1 -22t9.5 -16.5t24.5 -8.5t24.5 8.5t9.5 16.5t1 22v293q0 14 -1 22t-9.5 16.5t-24.5 8.5t-24.5 -8.5t-9.5 -16.5t-1 -22v-293zM255 371v52q0 28 8.5 54.5t28 52.5t59 41.5t94.5 15.5t94.5 -15.5t59 -41.5t28 -52.5t8.5 -54.5v-271q0 -28 -8.5 -54.5
t-28 -52.5t-59 -41.5t-94.5 -15.5t-94.5 15.5t-59 41.5t-28 52.5t-8.5 54.5v97h-65v-249h-155v575h155v-204h65z" />
    <glyph glyph-name="afii10097" unicode="&#x44f;" 
d="M260 480h-39q-31 0 -31 -38v-62q0 -16 9.5 -25.5t21.5 -9.5h39v135zM35 396v29q0 76 43 113t111 37h226v-575h-155v243q-70 0 -70 -91v-44q0 -85 -18 -108h-154q8 10 12 29.5t4.5 32.5t0.5 46v40q0 41 26 73.5t61 40.5v2q-41 7 -64 50.5t-23 81.5z" />
    <glyph glyph-name="afii10071" unicode="&#x451;" 
d="M35 423q0 28 8.5 54.5t28 52.5t59 41.5t94.5 15.5t94.5 -15.5t59 -41.5t28 -52.5t8.5 -54.5v-158h-225v-124q0 -14 1 -22t9.5 -16.5t24.5 -8.5t24.5 8.5t9.5 16.5t1 22v72h155v-61q0 -28 -8.5 -54.5t-28 -52.5t-59 -41.5t-94.5 -15.5t-94.5 15.5t-59 41.5t-28 52.5
t-8.5 54.5v271zM190 371h70v63q0 14 -1 22t-9.5 16.5t-24.5 8.5t-24.5 -8.5t-9.5 -16.5t-1 -22v-63zM247 619v117h101v-117h-101zM101 619v117h101v-117h-101z" />
    <glyph glyph-name="afii10099" unicode="&#x452;" 
d="M260 209q0 15 -1 24.5t-9.5 20t-24.5 10.5q-35 0 -35 -55v-209h-155v475h-33v112h33v132h155v-132h130v-112h-130v-137h2q40 65 112 65q54 0 82.5 -34.5t28.5 -89.5v-212q0 -95 -44.5 -133t-143.5 -38v85q33 0 33 40v188z" />
    <glyph glyph-name="afii10100" unicode="&#x453;" horiz-adv-x="389" 
d="M368 453h-178v-453h-155v575h333v-122zM213 759h139l-95 -123h-86z" />
    <glyph glyph-name="afii10101" unicode="&#x454;" 
d="M190 249v-108q0 -14 1 -22t9.5 -16.5t24.5 -8.5t24.5 8.5t9.5 16.5t1 22v51h155v-40q0 -28 -8.5 -54.5t-28 -52.5t-59 -41.5t-94.5 -15.5t-94.5 15.5t-59 41.5t-28 52.5t-8.5 54.5v271q0 28 8.5 54.5t28 52.5t59 41.5t94.5 15.5t94.5 -15.5t59 -41.5t28 -52.5t8.5 -54.5
v-25h-155v36q0 14 -1 22t-9.5 16.5t-24.5 8.5t-24.5 -8.5t-9.5 -16.5t-1 -22v-79h111v-106h-111z" />
    <glyph glyph-name="afii10102" unicode="&#x455;" horiz-adv-x="400" 
d="M22 181h138v-35q0 -52 40 -52q34 0 34 43q0 13 -5 25t-17.5 24t-22 20t-30 22.5t-29.5 21.5q-31 24 -50 43.5t-36 54t-17 73.5q0 80 47 123t126 43q172 0 172 -151v-31h-139v31q0 45 -33 45q-34 0 -34 -39q0 -16 11 -32.5t22.5 -26.5t36.5 -28t36 -27q57 -47 75 -72
q31 -43 31 -99q0 -19 -2 -36t-12.5 -43t-28 -44.5t-52.5 -32t-83 -13.5q-98 0 -138 39.5t-40 115.5v38z" />
    <glyph glyph-name="afii10103" unicode="&#x456;" horiz-adv-x="250" 
d="M48 575h154v-575h-154v575zM48 719h154v-106h-154v106z" />
    <glyph glyph-name="afii10104" unicode="&#x457;" horiz-adv-x="250" 
d="M48 575h154v-575h-154v575zM147 623v117h100v-117h-100zM1 623v117h101v-117h-101z" />
    <glyph glyph-name="afii10105" unicode="&#x458;" horiz-adv-x="250" 
d="M48 575h154v-516q0 -37 -4 -62t-16 -48.5t-38 -35.5t-65 -12h-75v108q8 -2 14 -2q30 0 30 34v534zM48 719h154v-106h-154v106z" />
    <glyph glyph-name="afii10106" unicode="&#x459;" horiz-adv-x="682" 
d="M441 105h39q31 0 31 38v88q0 16 -9.5 25.5t-21.5 9.5h-39v-161zM286 0v453h-61q-6 -281 -13 -330q-6 -45 -21 -72q-32 -58 -116 -58q-44 0 -68 18v101q13 -8 31 -8q17 0 26 21q17 42 17 450h360v-204h72q61 0 107 -40t46 -106v-65q0 -76 -47 -118t-108 -42h-225z" />
    <glyph glyph-name="afii10107" unicode="&#x45a;" horiz-adv-x="670" 
d="M260 0v249h-70v-249h-155v575h155v-204h70v204h155v-204h72q61 0 107 -40t46 -106v-65q0 -76 -47 -118t-108 -42h-225zM415 105h39q31 0 31 38v88q0 16 -9.5 25.5t-21.5 9.5h-39v-161z" />
    <glyph glyph-name="afii10108" unicode="&#x45b;" 
d="M190 475v-137h2q40 65 112 65q54 0 82.5 -34.5t28.5 -89.5v-279h-155v209q0 15 -1 24.5t-9.5 20t-24.5 10.5q-35 0 -35 -55v-209h-155v475h-33v112h33v132h155v-132h130v-112h-130z" />
    <glyph glyph-name="afii10109" unicode="&#x45c;" 
d="M330 321q38 -7 67.5 -40t29.5 -74v-99q0 -33 0.5 -46t4.5 -32.5t12 -29.5h-154q-18 23 -18 108v54q0 52 -8.5 71.5t-36.5 19.5h-25v-253h-154v575h154v-206h20q45 0 45 91v14q0 78 18 101h147q-8 -10 -12 -29.5t-4.5 -32.5t-0.5 -46v-30q0 -41 -25 -73.5t-60 -40.5v-2z
M248 744h139l-95 -123h-86z" />
    <glyph glyph-name="afii10110" unicode="&#x45e;" horiz-adv-x="400" 
d="M337 725q0 -55 -38 -77.5t-91 -22.5q-52 0 -90 22.5t-38 77.5h101q0 -31 27 -31q28 0 28 31h101zM51 -43q13 -10 35 -10q10 0 16.5 1.5t12 10.5t5.5 25q0 15 -18 109l-95 482h159l39 -404h1l40 404h152l-101 -526q-25 -127 -56 -165q-39 -48 -118 -48q-51 0 -72 13v108z
" />
    <glyph glyph-name="afii10193" unicode="&#x45f;" 
d="M158 0h-123v575h155v-453h70v453h155v-575h-123v-104h-134v104z" />
    <glyph glyph-name="afii10050" unicode="&#x490;" horiz-adv-x="392" 
d="M382 580h-180v-580h-165v719h205v102h140v-241z" />
    <glyph glyph-name="afii10098" unicode="&#x491;" horiz-adv-x="360" 
d="M348 453h-158v-453h-155v575h179v104h134v-226z" />
    <glyph glyph-name="endash" unicode="&#x2013;" 
d="M0 355h450v-112h-450v112z" />
    <glyph glyph-name="emdash" unicode="&#x2014;" horiz-adv-x="900" 
d="M0 355h900v-112h-900v112z" />
    <glyph glyph-name="quoteleft" unicode="&#x2018;" horiz-adv-x="250" 
d="M56 598q0 54 65 121h72q-20 -20 -28.5 -29.5t-21 -29.5t-16.5 -40h67v-155h-138v133z" />
    <glyph glyph-name="quoteright" unicode="&#x2019;" horiz-adv-x="250" 
d="M194 588q0 -24 -11 -48.5t-21.5 -37.5t-31.5 -37h-73q2 2 11.5 12t12.5 13.5t10.5 12.5t11 14.5t8.5 14t7.5 16t4.5 16.5h-67v155h138v-131z" />
    <glyph glyph-name="quotesinglbase" unicode="&#x201a;" horiz-adv-x="250" 
d="M194 155v-132q0 -23 -11 -47.5t-21.5 -37.5t-31.5 -37h-73q2 2 11.5 12t12.5 13.5t10.5 12.5t11 14.5t8.5 14t7.5 16t4.5 16.5h-67v155h138z" />
    <glyph glyph-name="quotedblleft" unicode="&#x201c;" 
d="M63 465v133q0 54 65 121h73l-9 -9l-9.5 -9.5l-9 -9t-9.5 -10.5t-7.5 -10t-8 -11.5t-6 -11.5t-5.5 -13t-3 -13h68v-157h-139zM248 465v133q0 24 11.5 48t22.5 37.5t31 35.5h73l-17 -17t-15 -16t-16 -21t-10 -20.5t-9 -24.5h68v-155h-139z" />
    <glyph glyph-name="quotedblright" unicode="&#x201d;" 
d="M387 588q0 -24 -11 -48t-22 -38t-32 -37h-73q2 2 13.5 14t15 16t12 14.5t12 17.5t8 17t6.5 20h-68v155h139v-131zM202 588q0 -24 -11.5 -48.5t-21.5 -37t-32 -37.5h-73q2 2 11.5 12t12.5 13.5t10.5 12.5t11 14.5t8.5 14t7.5 16t4.5 16.5h-67v155h139v-131z" />
    <glyph glyph-name="quotedblbase" unicode="&#x201e;" 
d="M387 23q0 -23 -11 -47t-22 -38t-32 -37h-73q2 2 13.5 14t15 16t12 14.5t12 17.5t8 17t6.5 20h-68v155h139v-132zM202 23q0 -23 -11.5 -47.5t-21.5 -37t-32 -37.5h-73q2 2 11.5 12t12.5 13.5t10.5 12.5t11 14.5t8.5 14t7.5 16t4.5 16.5h-67v155h139v-132z" />
    <glyph glyph-name="dagger" unicode="&#x2020;" 
d="M37 517h116v202h144v-202h116v-117h-116v-490h-144v490h-116v117z" />
    <glyph glyph-name="daggerdbl" unicode="&#x2021;" horiz-adv-x="500" 
d="M41 458v130h129v211h160v-211h129v-130h-129v-220h129v-130h-129v-208h-160v208h-129v130h129v220h-129z" />
    <glyph glyph-name="bullet" unicode="&#x2022;" 
d="M225 540q74 0 127 -52.5t53 -127.5t-53 -127.5t-127 -52.5t-127 52.5t-53 127.5t53 127.5t127 52.5z" />
    <glyph glyph-name="ellipsis" unicode="&#x2026;" horiz-adv-x="900" 
d="M76 0v166h149v-166h-149zM375 0v166h150v-166h-150zM675 0v166h149v-166h-149z" />
    <glyph glyph-name="perthousand" unicode="&#x2030;" horiz-adv-x="900" 
d="M460 246v-152q0 -32 23 -32q24 0 24 32v152q0 32 -23 32q-24 0 -24 -32zM364 94v152q0 106 119 106t119 -106v-152q0 -105 -119 -105t-119 105zM650 94v152q0 106 118 106q119 0 119 -106v-152q0 -105 -118 -105q-119 2 -119 105zM745 246v-152q0 -32 23 -32q24 0 24 32
v152q0 32 -23 32q-24 0 -24 -32zM132 -23l254 754h86l-252 -754h-88zM108 613v-152q0 -32 23 -32q24 0 24 33v151q0 32 -23 32q-24 0 -24 -32zM13 462l-1 151q-1 57 32 81.5t87 24.5q119 0 119 -106v-152q0 -105 -118 -105q-118 2 -119 106z" />
    <glyph glyph-name="guilsinglleft" unicode="&#x2039;" horiz-adv-x="300" 
d="M251 168h-117l-88 131l91 127h117l-94 -127z" />
    <glyph glyph-name="guilsinglright" unicode="&#x203a;" horiz-adv-x="300" 
d="M48 168l91 131l-93 127h117l91 -127l-89 -131h-117z" />
    <glyph glyph-name="Euro" unicode="&#x20ac;" 
d="M413 690v-131q-28 35 -90 35q-86 0 -99 -121h165l-26 -92h-146q0 -4 -0.5 -13t-0.5 -14t0.5 -15.5t0.5 -14.5h128l-26 -93h-94q13 -117 99 -117q60 0 89 31v-130q-35 -26 -118 -26q-184 0 -213 242h-67l26 93h33q-2 16 -2 30q0 9 2 27h-59l26 92h39q31 246 215 246
q82 0 118 -29z" />
    <glyph glyph-name="afii61352" unicode="&#x2116;" horiz-adv-x="864" 
d="M37 719h181l133 -424h2v424h160v-719h-180l-134 445h-2v-445h-160v719zM568 422q0 55 38 77.5t90 22.5q53 0 91 -22.5t38 -77.5v-160q0 -55 -38 -77.5t-91 -22.5q-52 0 -90 22.5t-38 77.5v160zM669 262q0 -31 27 -31q28 0 28 31v160q0 31 -28 31q-27 0 -27 -31v-160z
M568 112h257v-112h-257v112z" />
    <glyph glyph-name="trademark" unicode="&#x2122;" horiz-adv-x="900" 
d="M154 634h-100v85h310v-85h-99v-286h-111v286zM401 719h143l80 -215l80 215h142v-371h-101v243h-2l-80 -243h-79l-80 243h-2v-243h-101v371z" />
    <glyph glyph-name="radical" unicode="&#x221a;" horiz-adv-x="715" 
d="M146 309l-69 -39l-42 72l174 99l241 -306l132 650h100l-185 -916z" />
    <glyph glyph-name="infinity" unicode="&#x221e;" horiz-adv-x="737" 
d="M478 556h49q23 0 38.5 -1t45.5 -11.5t48 -29t33 -57.5t15 -94t-15 -94t-33 -57.5t-48 -29t-45.5 -11.5t-38.5 -1h-49q-31 0 -62.5 18t-47.5 58q-15 -40 -46 -58t-63 -18h-49q-23 0 -38.5 1t-45.5 11.5t-48 29t-33 57.5t-15 94t15 94t33 57.5t48 29t45.5 11.5t38.5 1h49
q31 0 62 -19t48 -60q16 41 47 60t62 19zM539 325q46 0 46 38t-46 38h-66q-46 0 -46 -38t46 -38h66zM264 325q46 0 46 38t-46 38h-66q-46 0 -46 -38t46 -38h66z" />
    <glyph glyph-name="approxequal" unicode="&#x2248;" horiz-adv-x="540" 
d="M478 409q-18 -25 -29.5 -38t-34.5 -26t-49 -13q-37 0 -91 30q-60 33 -104 33q-45 0 -76 -67l-32 117q41 78 113 78q33 0 99 -29q9 -4 31.5 -14.5t36 -15t24.5 -4.5q17 0 33 11.5t24.5 22.5t21.5 32zM478 142q-18 -25 -29.5 -38t-34.5 -26t-49 -13q-37 0 -91 30
q-60 33 -104 33q-45 0 -76 -67l-32 117q41 78 113 78q33 0 99 -29q9 -4 31.5 -14.5t36 -15t24.5 -4.5q17 0 33 11.5t24.5 22.5t21.5 32z" />
    <glyph glyph-name="notequal" unicode="&#x2260;" horiz-adv-x="540" 
d="M346 340l-33 -95h185v-128h-230l-43 -124h-128l43 124h-98v128h143l33 95h-176v128h221l40 115h128l-40 -115h107v-128h-152z" />
    <glyph glyph-name="lessequal" unicode="&#x2264;" horiz-adv-x="540" 
d="M42 429v127l456 171v-138l-276 -96v-1l276 -96v-138zM498 117h-456v128h456v-128z" />
    <glyph glyph-name="greaterequal" unicode="&#x2265;" horiz-adv-x="540" 
d="M42 396l276 96v1l-276 96v138l456 -171v-127l-456 -171v138zM498 117h-456v128h456v-128z" />
    <glyph glyph-name="nbspace" horiz-adv-x="225" 
 />
    <glyph glyph-name="hyphenminus" horiz-adv-x="300" 
d="M31 371h237v-133h-237v133z" />
    </font>
</defs>
</svg>
