<?xml version="1.0" encoding="utf-8"?>
<!-- Generator: Adobe Illustrator 15.0.0, SVG Export Plug-In  -->
<!DOCTYPE svg PUBLIC "-//W3C//DTD SVG 1.1//EN" "http://www.w3.org/Graphics/SVG/1.1/DTD/svg11.dtd" [
	<!ENTITY ns_flows "http://ns.adobe.com/Flows/1.0/">
]>
<svg version="1.1"
	 xmlns="http://www.w3.org/2000/svg" xmlns:xlink="http://www.w3.org/1999/xlink" xmlns:a="http://ns.adobe.com/AdobeSVGViewerExtensions/3.0/"
	 x="0px" y="0px" width="351px" height="351px" viewBox="0 0 351 351" enable-background="new 0 0 351 351" xml:space="preserve">
<defs>
</defs>
<rect x="103.167" y="76.584" fill="none" stroke="#ED4F8F" stroke-miterlimit="10" width="151.333" height="195.333"/>
<g>
	<defs>
		<rect id="SVGID_3_" width="351" height="351"/>
	</defs>
	<clipPath id="SVGID_4_">
		<use xlink:href="#SVGID_3_"  overflow="visible"/>
	</clipPath>
	
		<circle clip-path="url(#SVGID_4_)" fill="none" stroke="#FFFFFF" stroke-width="3" stroke-miterlimit="10" cx="175.5" cy="175.5" r="174"/>
	
		<circle clip-path="url(#SVGID_4_)" fill="none" stroke="#EF80A0" stroke-width="2" stroke-linecap="round" stroke-linejoin="round" stroke-dasharray="4.985,4.985" cx="176" cy="175.5" r="155.5"/>
	
		<rect x="96" y="71.25" clip-path="url(#SVGID_4_)" fill="none" stroke="#FFFFFF" stroke-width="2" stroke-linecap="round" stroke-linejoin="round" stroke-miterlimit="10" width="164" height="207"/>
</g>
<text transform="matrix(1 0 0 1 122.3335 106.0942)" fill="#FFFFFF" font-family="'ProximaNova-Bold'" font-size="24.2284">Russian IT</text>
<g>
	<defs>
		<rect id="SVGID_2_" width="351" height="351"/>
	</defs>
	<clipPath id="SVGID_5_">
		<use xlink:href="#SVGID_2_"  overflow="visible"/>
	</clipPath>
	<rect x="145.018" y="282.818" clip-path="url(#SVGID_5_)" fill="#CC4B7D" width="74.148" height="22.566"/>
</g>
<text transform="matrix(1 0 0 1 127.8335 257.584)"><tspan x="0" y="0" fill="#7C1236" font-family="'ProximaNova-Bold'" font-size="24.2284" letter-spacing="-1">W</tspan><tspan x="21.199" y="0" fill="#7C1236" font-family="'ProximaNova-Bold'" font-size="24.2284">ANTED</tspan></text>
<text transform="matrix(1 0 0 1 153.3486 299.582)"><tspan x="0" y="0" fill="#F2D2DF" font-family="'ProximaNova-Regular'" font-size="15.6216">V</tspan><tspan x="9.306" y="0" fill="#F2D2DF" font-family="'ProximaNova-Regular'" font-size="15.6216">acancy</tspan></text>
<g>
	<defs>
		<rect id="SVGID_1_" width="351" height="351"/>
	</defs>
	<clipPath id="SVGID_6_">
		<use xlink:href="#SVGID_1_"  overflow="visible"/>
	</clipPath>
	
		<path clip-path="url(#SVGID_6_)" fill="none" stroke="#FFFFFF" stroke-width="2" stroke-linecap="round" stroke-linejoin="round" stroke-miterlimit="10" d="
		M155.445,156.427c-0.623-1.764-0.508,4.964-0.537,6.412c-0.041,2.019-0.056,4.363,0.456,5.826
		c-0.987-1.127-2.673-1.725-4.253-2.111c-2.486,4.372-2.156,15.745,5.33,13.021c4.867,26.936,47.275,31.791,48.085,0.925
		c9.52,5.063,9.528-15.952,3.637-11.389c1.572-5.7,1.136-10.158,1.142-16.109"/>
	
		<path clip-path="url(#SVGID_6_)" fill="none" stroke="#FFFFFF" stroke-width="2" stroke-linecap="round" stroke-linejoin="round" stroke-miterlimit="10" d="
		M150.039,137.177c-2.326,5.255-2.537,11.194-4.207,16.598c5.516,2.892,13.862,0.856,19.372-1.109
		c-1.705,1.431-3.542,2.793-4.87,4.483c5.499,0.373,10.91-0.275,15.884-2.86c4.038-2.098,7.075-6.549,11.036-8.262
		c-0.129,2.111-0.875,4.176-1.771,6.144c4.209,0.317,7.831-4.179,11.369-5.889c0.15,1.028-0.793,5.765-0.771,6.968
		c5.226-0.989,9.375-10.403,9.919-4.5c0.259,2.81,1.345,2.048,3.305,4.252c10.445-11.502-1.238-27.494-13.224-31.752
		C180.049,115.556,159.302,116.25,150.039,137.177z"/>
	
		<path clip-path="url(#SVGID_6_)" fill="none" stroke="#7C1236" stroke-width="2" stroke-linecap="round" stroke-linejoin="round" stroke-miterlimit="10" d="
		M162.301,164.25c-1.65,0-2.573,1.281-2.051,2.846l2.102,6.308c0.522,1.565,2.299,2.846,3.949,2.846h7.714
		c1.649,0,3.398-1.29,3.887-2.866l1.941-6.268c0.486-1.576-0.463-2.866-2.113-2.866H162.301z"/>
	
		<path clip-path="url(#SVGID_6_)" fill="none" stroke="#7C1236" stroke-width="2" stroke-linecap="round" stroke-linejoin="round" stroke-miterlimit="10" d="
		M186.48,163.639c-1.65,0-2.573,1.281-2.052,2.846l2.307,6.919c0.521,1.565,2.299,2.846,3.949,2.846h8.411
		c1.65,0,3.4-1.289,3.889-2.866l2.129-6.879c0.488-1.576-0.463-2.866-2.113-2.866H186.48z"/>
	
		<line clip-path="url(#SVGID_6_)" fill="none" stroke="#7C1236" stroke-width="2" stroke-linecap="round" stroke-linejoin="round" stroke-miterlimit="10" x1="180" y1="165.75" x2="184.184" y2="165.75"/>
	
		<path clip-path="url(#SVGID_6_)" fill="none" stroke="#FFFFFF" stroke-width="2" stroke-linecap="round" stroke-linejoin="round" stroke-miterlimit="10" d="
		M171.192,186.254c5.893,6.081,15.648,6.081,21.543,0"/>
	<path clip-path="url(#SVGID_6_)" fill="#7C1236" d="M171.182,169.591c0,0.741-0.6,1.341-1.341,1.341s-1.341-0.6-1.341-1.341
		c0-0.741,0.6-1.341,1.341-1.341S171.182,168.85,171.182,169.591"/>
	<path clip-path="url(#SVGID_6_)" fill="#7C1236" d="M197.422,169.591c0,0.741-0.6,1.341-1.341,1.341s-1.341-0.6-1.341-1.341
		c0-0.741,0.6-1.341,1.341-1.341S197.422,168.85,197.422,169.591"/>
	
		<path clip-path="url(#SVGID_6_)" fill="none" stroke="#FFFFFF" stroke-width="2" stroke-linecap="round" stroke-linejoin="round" stroke-miterlimit="10" d="
		M182.092,210.25c-21.517,0-38.96,8.88-38.96,19.833h77.92C221.052,219.13,203.609,210.25,182.092,210.25z"/>
	
		<line clip-path="url(#SVGID_6_)" fill="none" stroke="#FFFFFF" stroke-width="2" stroke-linecap="round" stroke-linejoin="round" stroke-miterlimit="10" x1="176" y1="200.654" x2="176" y2="210.492"/>
	
		<line clip-path="url(#SVGID_6_)" fill="none" stroke="#FFFFFF" stroke-width="2" stroke-linecap="round" stroke-linejoin="round" stroke-miterlimit="10" x1="187" y1="201.547" x2="187" y2="210.492"/>
</g>
</svg>
