<?xml version="1.0" encoding="utf-8"?>
<!-- Generator: Adobe Illustrator 15.0.0, SVG Export Plug-In  -->
<!DOCTYPE svg PUBLIC "-//W3C//DTD SVG 1.1//EN" "http://www.w3.org/Graphics/SVG/1.1/DTD/svg11.dtd" [
	<!ENTITY ns_flows "http://ns.adobe.com/Flows/1.0/">
]>
<svg version="1.1"
	 xmlns="http://www.w3.org/2000/svg" xmlns:xlink="http://www.w3.org/1999/xlink" xmlns:a="http://ns.adobe.com/AdobeSVGViewerExtensions/3.0/"
	 x="0px" y="0px" width="351px" height="351px" viewBox="0 0 351 351" enable-background="new 0 0 351 351" xml:space="preserve">
<defs>
</defs>
<g>
	<defs>
		<rect id="SVGID_1_" width="351" height="351"/>
	</defs>
	<clipPath id="SVGID_2_">
		<use xlink:href="#SVGID_1_"  overflow="visible"/>
	</clipPath>
	
		<path clip-path="url(#SVGID_2_)" fill="none" stroke="#7C1236" stroke-width="2" stroke-linecap="round" stroke-linejoin="round" stroke-miterlimit="10" d="
		M81.677,269.363c-4.956-15.242-11.448-34.177-0.954-48.623c8.077-11.119,25.591-17.069,38.268-10.552
		c21.862,11.242,11.769,44.538,6.5,62.766"/>
	
		<path clip-path="url(#SVGID_2_)" fill="none" stroke="#7C1236" stroke-width="2" stroke-linecap="round" stroke-linejoin="round" stroke-miterlimit="10" d="
		M211.414,264.7c-2.369-15.852-5.644-35.599,7.093-48.113c9.804-9.631,28.06-12.605,39.485-4.083
		c19.704,14.7,4.249,45.871-3.959,62.978"/>
	
		<circle clip-path="url(#SVGID_2_)" fill="none" stroke="#FFFFFF" stroke-width="3" stroke-miterlimit="10" cx="175.5" cy="175.5" r="174"/>
	
		<circle clip-path="url(#SVGID_2_)" fill="none" stroke="#EF80A0" stroke-width="2" stroke-linecap="round" stroke-linejoin="round" stroke-dasharray="4.985,4.985" cx="176" cy="175.5" r="155.5"/>
	<path clip-path="url(#SVGID_2_)" fill="#C73D67" d="M199.5,185.25c0,18.225-12.984,33-29,33c-16.016,0-29-14.775-29-33
		c0-18.225,12.984-33,29-33C186.516,152.25,199.5,167.025,199.5,185.25"/>
	
		<ellipse clip-path="url(#SVGID_2_)" fill="none" stroke="#FFFFFF" stroke-width="3" stroke-linecap="round" stroke-linejoin="round" stroke-miterlimit="10" cx="170.5" cy="185.25" rx="29" ry="33"/>
	<path clip-path="url(#SVGID_2_)" fill="#C73D67" d="M137.6,193.147c13.755-3.436,20.219-16.559,29.972-25.543
		c-0.777,3.304-1.889,6.715-3.015,9.52c8.488-1.588,16.441-5.841,24.034-9.52c-1.153,2.529-1.726,5.806-2.987,8.347
		c1.042-0.736,1.887-1.235,2.952-1.851c5.193,4.79,10.095,11.618,13.721,17.823c-1.513-2.589,2.828-14.59,2.48-18.472
		c-0.524-5.859-2.401-10.849-6.367-15.258c-8.08-8.979-23.244-12.859-34.931-11.316C138.015,150.236,142.929,174.591,137.6,193.147"
		/>
	
		<path clip-path="url(#SVGID_2_)" fill="none" stroke="#FFFFFF" stroke-width="3" stroke-linecap="round" stroke-linejoin="round" stroke-miterlimit="10" d="
		M137.6,193.147c13.755-3.436,20.219-16.559,29.972-25.543c-0.777,3.304-1.889,6.715-3.015,9.52
		c8.488-1.588,16.441-5.841,24.034-9.52c-1.153,2.529-1.726,5.806-2.987,8.347c1.042-0.736,1.887-1.235,2.952-1.851
		c5.193,4.79,10.095,11.618,13.721,17.823c-1.513-2.589,2.828-14.59,2.48-18.472c-0.524-5.859-2.401-10.849-6.367-15.258
		c-8.08-8.979-23.244-12.859-34.931-11.316C138.015,150.236,142.929,174.591,137.6,193.147z"/>
	<path clip-path="url(#SVGID_2_)" fill="#C73D67" d="M138.5,311.25c-6.899-21.22-15.939-47.581-1.328-67.695
		c11.246-15.48,35.629-23.765,53.278-14.689c30.438,15.65,16.386,62.008,9.05,87.385"/>
	
		<path clip-path="url(#SVGID_2_)" fill="none" stroke="#FFFFFF" stroke-width="3" stroke-linecap="round" stroke-linejoin="round" stroke-miterlimit="10" d="
		M138.5,311.25c-6.899-21.22-15.939-47.581-1.328-67.695c11.246-15.48,35.629-23.765,53.278-14.689
		c30.438,15.65,16.386,62.008,9.05,87.385"/>
	
		<path clip-path="url(#SVGID_2_)" fill="none" stroke="#FFFFFF" stroke-width="2" stroke-linecap="round" stroke-linejoin="round" stroke-miterlimit="10" d="
		M161.352,94.095c-7.173,0.418-14.648,1.578-21.749,1.358c8.242,13.345,22.501,24.18,31.648,36.697
		c6.964-13.621,20.301-28.075,32.947-36.73c-6.159-1.203-12.613-2.013-18.543-3.325c1.021-22.404,26.469-34.506,44.741-40.021
		c-5.582-17.706-31.001-19.126-42.884-9.321c-7.767,6.409-13.939,14.894-18.189,23.964
		C168.341,68.813,160.848,94.125,161.352,94.095z"/>
	
		<path clip-path="url(#SVGID_2_)" fill="none" stroke="#7C1236" stroke-width="2" stroke-linecap="round" stroke-linejoin="round" stroke-miterlimit="10" d="
		M83.5,172.75c-2.372,12.781,6.596,36.793,23.319,31.913c14.144-4.127,17.076-25.126,10.181-36.413"/>
	
		<path clip-path="url(#SVGID_2_)" fill="none" stroke="#7C1236" stroke-width="2" stroke-linecap="round" stroke-linejoin="round" stroke-miterlimit="10" d="
		M79.102,176.697c2.679-0.795,6.291-2.62,8.389-4.227c3.634-0.679,7.718-4.771,10.553-7.465c-0.184,2.263-0.648,4.556-0.978,6.668
		c3.714-0.099,8.306-2.508,11.446-4.395c0.775,1.579,1.012,3.663,1.166,5.333c4.492-4.375,9.001-2.575,11.848-8.475
		c2.663-5.521,1.105-10-3.672-13.705C99.565,136.247,65.089,151.792,79.102,176.697z"/>
	
		<path clip-path="url(#SVGID_2_)" fill="none" stroke="#7C1236" stroke-width="2" stroke-linecap="round" stroke-linejoin="round" stroke-miterlimit="10" d="
		M238.562,170.915c-3.635,13.53-6.772,28.554,9.242,32.802c2.841,0.753,14.622,0.998,13.39-6.417"/>
	
		<path clip-path="url(#SVGID_2_)" fill="none" stroke="#7C1236" stroke-width="2" stroke-linecap="round" stroke-linejoin="round" stroke-miterlimit="10" d="
		M252.389,150.676c-3.953-7.618-15.289-2.919-20.002,1.068c-4.452,3.767-7.035,9.172-6.961,15.023
		c0.121,9.345,3.372,19.396-9.207,22.092c1.6,2.491,9.807,2.902,5.027,6.336c5.298,1.706,8.668-1.007,12.038-4.461"/>
	
		<path clip-path="url(#SVGID_2_)" fill="none" stroke="#7C1236" stroke-width="2" stroke-linecap="round" stroke-linejoin="round" stroke-miterlimit="10" d="
		M250.756,157.461c8.514-12.809,31.473-5.337,32.284,9.63c0.583,10.749-10.363,27.767,3.247,34.721
		c-4.143,0.615-8.56-0.174-12.571,0.652c0.191,1.348,0.827,3.202,1.454,4.32c-3.378-0.276-5.979-1.264-8.629-3.348
		c0.997,0.757,1.732,1.562,2.614,2.432c-12.393-5.869-4.289-21.517-6.569-31.781c-1.207-5.438-7.706-3.82-10.953-7.552
		c-2.076-2.387-3.471-8.466-0.642-10.447"/>
	
		<path clip-path="url(#SVGID_2_)" fill="none" stroke="#7C1236" stroke-width="2" stroke-linecap="round" stroke-linejoin="round" stroke-miterlimit="10" d="
		M247.565,154.089c3.12,3.302-0.571,11.505-3.754,13.922c-2.587,1.965-6.718,2.312-7.629,5.794"/>
</g>
</svg>
