<?xml version="1.0" encoding="utf-8"?>
<!-- Generator: Adobe Illustrator 15.0.0, SVG Export Plug-In  -->
<!DOCTYPE svg PUBLIC "-//W3C//DTD SVG 1.1//EN" "http://www.w3.org/Graphics/SVG/1.1/DTD/svg11.dtd" [
	<!ENTITY ns_flows "http://ns.adobe.com/Flows/1.0/">
]>
<svg version="1.1"
	 xmlns="http://www.w3.org/2000/svg" xmlns:xlink="http://www.w3.org/1999/xlink" xmlns:a="http://ns.adobe.com/AdobeSVGViewerExtensions/3.0/"
	 x="0px" y="0px" width="238px" height="47px" viewBox="0 0 238 47" enable-background="new 0 0 238 47" xml:space="preserve">
<defs>
</defs>
<g>
	<defs>
		<rect id="SVGID_1_" width="238.148" height="46.939"/>
	</defs>
	
	<clipPath id="SVGID_2_">
		<use xlink:href="#SVGID_1_"  overflow="visible"/>
	</clipPath>
	<path clip-path="url(#SVGID_2_)" fill-rule="evenodd" clip-rule="evenodd" fill="#FFFFFF" d="M14.945,0
		c-2.774,0-5.254,1.09-7.071,2.84C6.054,4.59,4.89,6.996,4.89,9.672v2.5v0.023l0.047,0.989v0.023v0.047
		c0.062,0.992-0.078,1.906-0.406,2.742c-0.329,0.828-0.883,1.633-1.614,2.336L2.773,18.5c-1.192,1.148-2.067,2.508-2.477,3.992
		c-0.414,1.481-0.39,3.024,0.047,4.594L4.988,43.71c-0.004,0.023-0.004,0.047,0,0.07c-0.004,0.024-0.004,0.047,0,0.074l0.648,2.211
		v0.047L5.757,46.5c0.059,0.207,0.238,0.375,0.457,0.435c0.063,0.007,0.129,0.007,0.192,0h17.101c0.278,0,0.543-0.185,0.629-0.435
		l0.141-0.387c0.004-0.015,0.004-0.031,0-0.047l0.629-2.211v-0.074v-0.07l4.617-16.625c0.433-1.563,0.488-3.102,0.07-4.594
		c-0.41-1.484-1.258-2.844-2.453-3.992l-0.168-0.168c-0.73-0.703-1.262-1.508-1.586-2.336c-0.328-0.836-0.473-1.75-0.41-2.742
		v-0.047v-0.023l0.023-0.989v-0.023v-2.5c0-2.676-1.14-5.082-2.957-6.832C20.222,1.09,17.718,0,14.945,0 M14.945,2.332
		c2.101,0,4.011,0.844,5.39,2.168c1.375,1.324,2.235,3.148,2.235,5.172v0.527c-0.789-0.168-2.067-0.234-2.719-0.265h-0.094
		c-0.586-0.032-1.262-0.043-1.926,0c-0.89,0.058-1.761,0.203-2.429,0.484c-0.067,0.027-0.149,0.055-0.215,0.07H15.16l-0.094,0.024
		h-0.242l-0.094-0.024c-0.07-0.015-0.152-0.043-0.219-0.07c-0.664-0.281-1.562-0.426-2.453-0.484c-0.664-0.043-1.316-0.032-1.898,0
		h-0.098C9.41,9.965,8.109,10.031,7.32,10.199c0.004-0.176-0.008-0.285,0-0.48V9.672c0-2.024,0.859-3.848,2.238-5.172
		C10.933,3.172,12.843,2.332,14.945,2.332 M10.445,10.992c0.488-0.019,1.027-0.008,1.566,0.027c0.66,0.043,1.293,0.145,1.805,0.313
		c-0.067,0.164-0.098,0.34-0.098,0.551c0,1.101-0.723,1.898-1.613,2.261c-0.336,0.137-0.703,0.235-1.059,0.243
		c-0.344,0.004-0.676-0.063-0.984-0.196c-0.738-0.312-1.301-1.074-1.301-2.379c0-0.199,0.051-0.375,0.145-0.507
		c0.07-0.094,0.168-0.168,0.289-0.192h0.023C9.535,11.062,9.96,11.012,10.445,10.992 M18.699,10.992
		c0.789-0.008,1.523,0.047,1.996,0.121c0.121,0.024,0.242,0.098,0.312,0.192c0.094,0.132,0.145,0.308,0.145,0.507
		c0,1.305-0.563,2.067-1.301,2.379c-0.309,0.133-0.664,0.2-1.008,0.196c-0.355-0.008-0.723-0.082-1.058-0.219v-0.024
		c-0.891-0.363-1.614-1.16-1.614-2.261c0-0.211-0.031-0.387-0.097-0.551c0.511-0.168,1.171-0.27,1.832-0.313
		C18.171,11,18.433,10.996,18.699,10.992 M7.753,11.211c-0.058,0.195-0.074,0.391-0.074,0.601c0,1.813,0.836,2.895,1.949,3.368
		c0.453,0.191,0.95,0.297,1.446,0.289c0.484-0.012,0.984-0.125,1.441-0.313c1.266-0.515,2.285-1.672,2.285-3.273
		c0-0.114,0.035-0.192,0.074-0.239c0.016-0.019,0.028-0.039,0.047-0.05h0.047c0.024,0.011,0.059,0.031,0.074,0.05
		c0.036,0.047,0.047,0.125,0.047,0.239c0,1.601,1.02,2.758,2.285,3.273c0.457,0.188,0.957,0.301,1.446,0.313
		c0.492,0.008,0.988-0.098,1.441-0.289c1.113-0.473,1.973-1.555,1.973-3.368c0-0.21-0.039-0.406-0.098-0.601l0.266,0.047
		c0.054,0.011,0.113,0.027,0.168,0.023v0.891l-0.024,0.937c-0.082,1.317,0.125,2.578,0.578,3.731
		c0.457,1.156,1.176,2.199,2.141,3.125l0.145,0.172c0.433,0.414,0.789,0.871,1.082,1.343c0.011,0.02,0.035,0.032,0.046,0.051
		c0.239,0.449,0.426,0.91,0.555,1.395c0.313,1.16,0.313,2.426-0.023,3.679l-1.852,6.879l-2.527,9.071h-3.223
		c-0.301,0-0.531,0.229-0.531,0.53c0,0.297,0.23,0.552,0.531,0.552h2.934l-0.266,0.961H7.777l-0.289-0.961h9.359
		c0.297,0,0.551-0.255,0.551-0.552c0-0.301-0.254-0.53-0.551-0.53H7.199l-2.211-7.892l-2.145-8.059
		c-0.336-1.253-0.332-2.519-0.023-3.679c0.129-0.485,0.316-0.946,0.554-1.395C3.386,21.512,3.41,21.5,3.421,21.48
		c0.293-0.472,0.625-0.929,1.059-1.343l0.168-0.172c0.965-0.926,1.687-1.969,2.14-3.125c0.454-1.153,0.661-2.414,0.579-3.731
		c-0.028-0.504-0.067-1.105-0.071-1.828c0.063,0.008,0.129-0.008,0.192-0.023L7.753,11.211z M11.046,18.98
		c-0.297,0-0.551,0.231-0.551,0.528v4.886c0,0.098,0.016,0.2,0.071,0.286c0.16,0.254,0.515,0.328,0.769,0.172l3.633-2.262
		l3.633,2.262c0.254,0.156,0.59,0.082,0.746-0.172c0.055-0.086,0.098-0.188,0.098-0.286v-4.886c0-0.297-0.254-0.528-0.555-0.528
		c-0.113,0-0.203,0.036-0.289,0.098l-3.633,2.234l-3.633-2.234C11.249,19.016,11.163,18.98,11.046,18.98"/>
	<path clip-path="url(#SVGID_2_)" fill="#FFFFFF" d="M61.589,36.437c0.078,0.184,0.086,0.34,0.02,0.473
		c-0.067,0.129-0.192,0.195-0.375,0.195h-2.239c-0.21,0-0.378-0.031-0.511-0.098c-0.129-0.066-0.246-0.202-0.352-0.413
		l-5.031-10.453h-5.149v10.257c0,0.473-0.222,0.707-0.667,0.707h-1.688c-0.445,0-0.668-0.223-0.668-0.668V11.68
		c0-0.418,0.223-0.629,0.668-0.629h8.016c0.968,0,1.91,0.14,2.828,0.414c0.918,0.277,1.73,0.707,2.437,1.297
		c0.707,0.59,1.27,1.355,1.688,2.3c0.422,0.942,0.629,2.067,0.629,3.379c0,0.731-0.09,1.473-0.274,2.219
		c-0.183,0.746-0.472,1.449-0.863,2.102c-0.395,0.656-0.91,1.238-1.555,1.75c-0.64,0.511-1.406,0.91-2.297,1.199L61.589,36.437z
		 M58.015,18.383c0-0.926-0.145-1.68-0.434-2.274c-0.289-0.59-0.675-1.047-1.16-1.375c-0.484-0.336-1.035-0.562-1.648-0.695
		c-0.617-0.133-1.254-0.195-1.906-0.195h-4.915v9.586h4.836c0.575,0,1.172-0.059,1.786-0.176c0.617-0.117,1.179-0.352,1.691-0.715
		c0.512-0.352,0.93-0.863,1.258-1.539C57.851,20.332,58.015,19.457,58.015,18.383 M80.921,36.437c0,0.445-0.222,0.668-0.668,0.668
		h-1.609c-0.473,0-0.707-0.223-0.707-0.668v-1.375l-0.078-0.078c-0.317,0.211-0.727,0.457-1.239,0.746
		c-0.511,0.289-1.066,0.563-1.671,0.825c-0.602,0.261-1.243,0.483-1.926,0.668c-0.68,0.183-1.375,0.276-2.082,0.276
		c-1.281,0-2.305-0.184-3.063-0.551c-0.761-0.367-1.343-0.871-1.75-1.512c-0.406-0.645-0.668-1.41-0.785-2.3
		c-0.121-0.892-0.18-1.86-0.18-2.907V18.637c0-0.446,0.223-0.668,0.676-0.668h1.715c0.426,0,0.637,0.222,0.637,0.668v11.632
		c0,0.915,0.051,1.665,0.156,2.238c0.105,0.578,0.281,1.035,0.531,1.375c0.242,0.341,0.578,0.578,0.996,0.707
		c0.418,0.134,0.922,0.199,1.528,0.199c0.468,0,1.011-0.094,1.64-0.276c0.629-0.185,1.254-0.392,1.883-0.63
		c0.629-0.234,1.211-0.484,1.762-0.745c0.543-0.263,0.973-0.474,1.289-0.63V18.637c0-0.446,0.223-0.668,0.668-0.668h1.609
		c0.446,0,0.668,0.222,0.668,0.668V36.437z M101.359,27.398c0,1.625-0.125,3.059-0.375,4.305c-0.25,1.242-0.68,2.293-1.297,3.146
		c-0.613,0.851-1.442,1.5-2.477,1.944c-1.035,0.445-2.336,0.668-3.91,0.668c-0.601,0-1.238-0.02-1.906-0.059
		s-1.328-0.102-1.984-0.179c-0.653-0.079-1.27-0.177-1.844-0.293c-0.578-0.118-1.09-0.259-1.535-0.414
		c-0.446-0.157-0.715-0.388-0.805-0.688c-0.09-0.301-0.137-0.594-0.137-0.883V10.148c0-0.289,0.047-0.476,0.137-0.57
		c0.09-0.09,0.262-0.137,0.523-0.137h1.625c0.289,0,0.473,0.051,0.563,0.157c0.094,0.105,0.137,0.289,0.137,0.55v8.528l0.039,0.078
		c1.187-0.445,2.234-0.754,3.152-0.922c0.922-0.172,1.734-0.258,2.449-0.258c1.52,0,2.785,0.231,3.778,0.688
		c1.003,0.461,1.781,1.121,2.347,1.984c0.571,0.867,0.961,1.902,1.184,3.106C101.245,24.559,101.359,25.906,101.359,27.398
		 M98.214,27.773c0-1.363-0.074-2.527-0.219-3.484c-0.144-0.965-0.382-1.734-0.73-2.324c-0.34-0.598-0.789-1.024-1.336-1.285
		c-0.559-0.262-1.238-0.391-2.059-0.391c-0.835,0-1.761,0.07-2.757,0.215c-1,0.144-1.996,0.359-3,0.648v13.125
		c0.761,0.129,1.586,0.23,2.465,0.293c0.882,0.067,1.746,0.098,2.585,0.098c0.762,0,1.461-0.069,2.09-0.215
		c0.633-0.144,1.164-0.457,1.598-0.94c0.434-0.493,0.773-1.188,1.008-2.091C98.093,30.512,98.214,29.3,98.214,27.773
		 M116.054,19.894c0.078,0.473-0.094,0.735-0.512,0.786c-0.523,0.105-1.097,0.242-1.73,0.414c-0.629,0.168-1.234,0.34-1.824,0.511
		c-0.59,0.168-1.133,0.34-1.633,0.508c-0.496,0.172-0.863,0.321-1.098,0.453v13.871c0,0.445-0.222,0.668-0.676,0.668h-1.714
		c-0.426,0-0.637-0.223-0.637-0.668v-17.8c0-0.446,0.211-0.668,0.637-0.668h1.675c0.477,0,0.715,0.222,0.715,0.668v1.609
		l0.078,0.082c0.262-0.211,0.621-0.441,1.078-0.687c0.461-0.25,0.965-0.5,1.516-0.75c0.547-0.247,1.113-0.469,1.688-0.668
		c0.578-0.196,1.113-0.344,1.613-0.45c0.234-0.054,0.39-0.046,0.472,0.02c0.079,0.062,0.141,0.215,0.196,0.449L116.054,19.894z
		 M130.398,34.984c-0.97,0.575-2.051,1.125-3.242,1.648c-1.192,0.527-2.575,0.789-4.146,0.789c-1.913,0-3.276-0.461-4.089-1.375
		c-0.812-0.918-1.219-2.27-1.219-4.051c0-2.227,0.567-3.883,1.692-4.969c1.125-1.09,3-1.633,5.616-1.633h5.427v-1.335
		c0-1.442-0.336-2.434-1.004-2.985c-0.668-0.551-1.863-0.828-3.595-0.828c-0.366,0-0.78,0.008-1.237,0.02
		c-0.461,0.015-0.938,0.043-1.435,0.082c-0.5,0.039-0.996,0.078-1.496,0.117c-0.496,0.039-0.953,0.086-1.375,0.137
		c-0.444,0.078-0.707-0.04-0.785-0.356l-0.233-1.019c-0.055-0.184-0.035-0.34,0.058-0.473c0.09-0.129,0.282-0.262,0.571-0.391
		c0.39-0.133,0.863-0.25,1.414-0.355c0.55-0.106,1.125-0.192,1.729-0.254c0.603-0.067,1.195-0.113,1.785-0.141
		c0.59-0.023,1.121-0.039,1.594-0.039c1.57,0,2.82,0.172,3.759,0.512c0.937,0.34,1.651,0.812,2.141,1.414
		c0.492,0.605,0.8,1.336,0.938,2.203c0.133,0.863,0.194,1.82,0.194,2.867v8.684c0,0.395,0.024,0.695,0.06,0.906
		c0.039,0.207,0.104,0.367,0.198,0.469c0.091,0.105,0.231,0.181,0.41,0.22c0.185,0.039,0.435,0.069,0.75,0.097
		c0.446,0.028,0.668,0.196,0.668,0.512v0.98c0,0.184-0.054,0.336-0.16,0.454c-0.101,0.116-0.312,0.203-0.629,0.253
		c-0.469,0.079-0.929,0.118-1.375,0.118c-0.93,0-1.608-0.168-2.047-0.509c-0.44-0.344-0.726-0.93-0.858-1.77H130.398z
		 M130.438,27.871h-5.777c-1.204,0-2.161,0.277-2.868,0.824c-0.707,0.551-1.062,1.614-1.062,3.184c0,1.102,0.219,1.849,0.647,2.242
		c0.435,0.392,1.224,0.59,2.379,0.59c0.496,0,1.039-0.066,1.629-0.198c0.591-0.13,1.188-0.31,1.789-0.532
		c0.603-0.223,1.185-0.464,1.75-0.727c0.563-0.262,1.067-0.523,1.513-0.784V27.871z M142.266,12.859c0,0.5-0.099,0.918-0.298,1.258
		c-0.194,0.34-0.659,0.512-1.394,0.512c-0.758,0-1.231-0.176-1.414-0.531c-0.184-0.352-0.274-0.766-0.274-1.239
		c0-0.496,0.109-0.902,0.332-1.218c0.224-0.313,0.677-0.469,1.356-0.469c0.707,0,1.168,0.148,1.375,0.449
		C142.16,11.922,142.266,12.336,142.266,12.859 M142.031,36.437c0,0.445-0.211,0.668-0.629,0.668h-1.614
		c-0.472,0-0.707-0.223-0.707-0.668v-17.8c0-0.289,0.06-0.473,0.176-0.551c0.117-0.078,0.297-0.117,0.531-0.117h1.614
		c0.418,0,0.629,0.222,0.629,0.668V36.437z M162.699,36.437c0,0.445-0.235,0.668-0.707,0.668h-1.653
		c-0.444,0-0.668-0.223-0.668-0.668l0.039-11.632c0-0.891-0.05-1.629-0.156-2.219c-0.104-0.59-0.28-1.055-0.53-1.395
		c-0.246-0.339-0.574-0.578-0.981-0.707c-0.406-0.132-0.91-0.195-1.511-0.195c-0.473,0-1.024,0.09-1.653,0.273
		c-0.629,0.184-1.258,0.395-1.886,0.629c-0.629,0.235-1.219,0.477-1.77,0.727c-0.548,0.25-0.97,0.453-1.255,0.609v13.91
		c0,0.445-0.237,0.668-0.711,0.668h-1.608c-0.418,0-0.629-0.223-0.629-0.668v-17.8c0-0.446,0.211-0.668,0.629-0.668h1.608
		c0.238,0,0.414,0.039,0.531,0.117c0.122,0.078,0.18,0.262,0.18,0.551v1.414l0.117,0.039c0.313-0.207,0.719-0.457,1.215-0.746
		c0.5-0.289,1.06-0.563,1.673-0.825c0.616-0.261,1.266-0.484,1.944-0.667c0.681-0.184,1.375-0.278,2.082-0.278
		c1.286,0,2.301,0.184,3.047,0.551c0.746,0.367,1.317,0.871,1.711,1.516c0.392,0.64,0.649,1.406,0.767,2.296
		c0.117,0.891,0.176,1.86,0.176,2.907V36.437z M170.163,35.574c0,0.524-0.109,0.969-0.332,1.336
		c-0.222,0.367-0.714,0.551-1.472,0.551c-0.785,0-1.278-0.184-1.478-0.551c-0.194-0.367-0.293-0.812-0.293-1.336
		c0-0.523,0.113-0.957,0.332-1.297c0.224-0.34,0.703-0.511,1.438-0.511c0.758,0,1.25,0.171,1.472,0.511
		C170.054,34.617,170.163,35.05,170.163,35.574 M188.124,35.691c0.078,0.368-0.065,0.641-0.433,0.825
		c-0.735,0.339-1.656,0.578-2.771,0.707c-1.112,0.132-2.168,0.198-3.164,0.198c-1.729,0-3.108-0.262-4.144-0.789
		c-1.035-0.523-1.836-1.241-2.399-2.159c-0.562-0.918-0.929-1.978-1.101-3.185c-0.168-1.203-0.254-2.5-0.254-3.891
		c0-1.257,0.086-2.472,0.254-3.652c0.172-1.18,0.539-2.227,1.101-3.144c0.563-0.918,1.364-1.653,2.399-2.2
		c1.035-0.55,2.414-0.828,4.144-0.828c0.396,0,0.853,0.016,1.375,0.039c0.524,0.028,1.056,0.074,1.591,0.141
		c0.538,0.062,1.069,0.156,1.594,0.273c0.522,0.117,0.996,0.27,1.414,0.453c0.211,0.079,0.336,0.196,0.375,0.352
		c0.039,0.16,0.047,0.316,0.019,0.473l-0.16,0.902c-0.051,0.211-0.176,0.344-0.371,0.395c-0.194,0.05-0.414,0.066-0.647,0.039
		c-0.813-0.079-1.711-0.164-2.692-0.254c-0.983-0.094-1.828-0.141-2.535-0.141c-0.89,0-1.637,0.125-2.241,0.375
		c-0.603,0.25-1.078,0.648-1.435,1.199c-0.351,0.551-0.608,1.278-0.765,2.18c-0.157,0.906-0.235,2.023-0.235,3.359
		c0,1.441,0.078,2.633,0.235,3.578c0.156,0.941,0.422,1.695,0.785,2.258c0.366,0.563,0.851,0.965,1.457,1.199
		c0.601,0.234,1.336,0.355,2.198,0.355c0.317,0,0.699-0.016,1.16-0.039c0.457-0.026,0.931-0.063,1.414-0.102
		c0.485-0.039,0.978-0.078,1.474-0.117c0.495-0.039,0.944-0.086,1.336-0.137c0.237-0.027,0.426-0.011,0.569,0.039
		c0.146,0.051,0.242,0.211,0.293,0.473L188.124,35.691z M206.71,27.203c0,1.152-0.065,2.332-0.194,3.535
		c-0.134,1.207-0.466,2.309-1.005,3.301c-0.53,0.996-1.348,1.81-2.448,2.438c-1.095,0.628-2.613,0.944-4.547,0.944
		c-1.88,0-3.353-0.316-4.406-0.944c-1.06-0.629-1.853-1.435-2.371-2.415c-0.524-0.984-0.844-2.085-0.961-3.305
		c-0.117-1.215-0.18-2.402-0.18-3.555c0-0.94,0.077-1.976,0.237-3.105c0.157-1.125,0.504-2.172,1.039-3.141
		c0.532-0.973,1.325-1.777,2.371-2.418c1.043-0.641,2.469-0.965,4.271-0.965c1.805,0,3.25,0.281,4.332,0.848
		c1.086,0.562,1.918,1.297,2.495,2.199c0.567,0.902,0.942,1.934,1.113,3.086C206.624,24.859,206.71,26.023,206.71,27.203
		 M203.684,27.457c0-1.203-0.063-2.25-0.195-3.156c-0.129-0.895-0.387-1.645-0.766-2.231c-0.38-0.59-0.902-1.031-1.57-1.332
		c-0.668-0.301-1.539-0.449-2.614-0.449c-1.022,0-1.847,0.148-2.476,0.449c-0.629,0.301-1.129,0.746-1.492,1.352
		c-0.368,0.601-0.618,1.347-0.746,2.23c-0.133,0.891-0.2,1.934-0.2,3.137c0,1.199,0.067,2.25,0.2,3.142
		c0.128,0.882,0.378,1.629,0.746,2.229c0.363,0.598,0.863,1.051,1.492,1.353c0.629,0.3,1.453,0.448,2.476,0.448
		c1.075,0,1.946-0.145,2.614-0.43c0.668-0.289,1.19-0.726,1.57-1.312c0.379-0.587,0.637-1.337,0.766-2.231
		C203.62,29.75,203.684,28.684,203.684,27.457 M238.148,36.437c0,0.445-0.224,0.668-0.676,0.668h-1.677
		c-0.453,0-0.676-0.223-0.676-0.668V24.609c0-0.812-0.042-1.492-0.136-2.043c-0.09-0.55-0.254-0.996-0.492-1.336
		c-0.227-0.339-0.543-0.582-0.938-0.726c-0.391-0.145-0.883-0.215-1.483-0.215c-0.473,0-0.981,0.082-1.547,0.254
		c-0.563,0.172-1.125,0.371-1.703,0.609c-0.571,0.235-1.118,0.485-1.646,0.746c-0.515,0.262-0.948,0.485-1.289,0.668
		c0.027,0.157,0.048,0.418,0.06,0.786c0.015,0.367,0.019,0.812,0.019,1.335v11.75c0,0.445-0.222,0.668-0.672,0.668h-1.757
		c-0.399,0-0.594-0.223-0.594-0.668l0.039-12.101c0-1.285-0.195-2.281-0.59-2.988c-0.396-0.707-1.191-1.059-2.398-1.059
		c-0.446,0-0.93,0.07-1.454,0.215c-0.522,0.144-1.065,0.328-1.628,0.551c-0.567,0.222-1.122,0.464-1.672,0.726
		c-0.551,0.262-1.047,0.512-1.493,0.746v13.91c0,0.445-0.222,0.668-0.667,0.668h-1.653c-0.418,0-0.629-0.223-0.629-0.668v-17.8
		c0-0.446,0.211-0.668,0.629-0.668h1.613c0.469,0,0.707,0.222,0.707,0.668v1.375h0.043c0.396-0.235,0.832-0.496,1.321-0.785
		c0.483-0.29,1.008-0.559,1.569-0.805c0.563-0.25,1.152-0.453,1.755-0.61c0.602-0.156,1.219-0.238,1.848-0.238
		c1.441,0,2.566,0.242,3.367,0.727c0.797,0.488,1.367,1.187,1.711,2.105c1.019-0.707,2.133-1.355,3.324-1.945
		c1.19-0.59,2.457-0.887,3.801-0.887c1.229,0,2.218,0.172,2.965,0.512c0.753,0.34,1.324,0.82,1.714,1.433
		c0.396,0.618,0.657,1.356,0.789,2.223c0.129,0.863,0.196,1.82,0.196,2.867V36.437"/>
</g>
</svg>
